<?xml version="1.0" encoding="utf-8"?>
<!-- Generator: Adobe Illustrator 23.0.1, SVG Export Plug-In . SVG Version: 6.00 Build 0)  -->
<svg version="1.1" id="Layer_1" xmlns="http://www.w3.org/2000/svg" xmlns:xlink="http://www.w3.org/1999/xlink" x="0px" y="0px"
	 viewBox="0 0 400 400" style="enable-background:new 0 0 400 400;" xml:space="preserve">
<style type="text/css">
	.st0{opacity:0.49;}
	.st1{fill:#FFFFDB;}
</style>
<g class="st0">
	<path class="st1" d="M204.3,73.4c0.3,2.6-1.2,4.1-3.5,4.3c-2.6,0.2-4.3-1.8-4.4-4.1c-0.1-2.2,1.1-4.5,3.8-4.4
		C202.7,69.3,204.2,70.9,204.3,73.4z"/>
	<path class="st1" d="M176,293.8c-1.8,1.8-2.6,4.1-5,4c-3.1-0.2-2.7-3.3-3.1-5.2c-0.4-2,2-3.2,3.4-3.2
		C174,289.3,173.4,293,176,293.8z"/>
	<path class="st1" d="M28.6,73.1c-1.4,1.5-2.2,3.8-4.6,4.1c-1.5,0.2-3.3-1.6-2.8-2.5c1-1.8-2-5.8,2.6-5.6
		C25.9,69.2,27.7,70.5,28.6,73.1z"/>
	<path class="st1" d="M85.2,8.8c-0.1-2.3,0.9-4.9-2.2-5.5c-0.1,0.2-0.4,0.4-0.4,0.6c0.3,1.9,0.7,4.3-1.6,4.7
		c-1.5,0.2-2.7-1.9-2.2-3.7c0.6-1.9,0.1-5,4-4C87.1,1.9,88.3,4.9,85.2,8.8z"/>
	<path class="st1" d="M24.1,43.2c-2.5,0.1-4-1.2-3.9-3.7c0.1-2.4,1.1-4.7,3.9-4.4c2,0.2,4.4,1.4,4.3,4
		C28.2,41.5,26.9,43.4,24.1,43.2z M26.1,37.5c-2.9,0.8-3.3,2.2-2.6,4.6C25.3,40.9,25.8,39.6,26.1,37.5z"/>
	<path class="st1" d="M293.9,361.4c-2.6,0.6-2.9,3.9-5.3,4.4c-1.6,0.3-3.1-1.2-2.9-2.9c0.3-2-0.2-4.8,3-5.1
		C291.2,357.6,292.4,359.4,293.9,361.4z M288.6,362.4c-0.1,0.1-0.2,0.3-0.4,0.4C288.3,362.6,288.5,362.5,288.6,362.4
		c0.1-0.1,0.2-0.2,0.2-0.3C288.7,362.1,288.6,362.2,288.6,362.4z"/>
	<path class="st1" d="M229.4,397.4c-1.6-0.2-3.9,0.7-3.6-2.4c0.3-3.4,3.2-2.7,5-2.6c1.9,0.1,3.5,1.7,3,4c-0.4,1.9-1.2,3.9-3.8,3.6
		C227.9,399.7,229.1,398.4,229.4,397.4c1.1-0.2,2.2-0.4,2.8-1.6C230.1,394.4,228.5,393.8,229.4,397.4z"/>
	<path class="st1" d="M57.3,260.1c-0.6,2.1-1.8,3.7-4,3.6c-2.2-0.1-3.6-1.5-3.5-3.9c0.1-2.3,1.5-3.5,3.8-3.4
		C56,256.5,57,258,57.3,260.1z M53.3,257.9c-0.9,0.3-1.8,0.8-1.6,2.1c0.1,1.2,0.7,2,2,1.9c1.3-0.1,1.9-0.8,1.8-2
		C55.4,258.6,54.6,258.1,53.3,257.9z"/>
	<path class="st1" d="M204.4,175.2c-0.5,2.1-1.6,3.6-3.9,3.5c-2.5-0.1-3.7-1.6-3.5-4.1c0.2-2.3,1.7-3.4,3.9-3.2
		C203.1,171.6,204.1,173.1,204.4,175.2z M202.4,174.7c-0.2-0.9-0.7-1.5-2-1.5c-1.3,0-1.9,0.9-1.9,2c0,1.1,0.8,1.9,2,1.8
		C201.7,176.9,202.5,176.3,202.4,174.7z"/>
	<path class="st1" d="M377.2,273.3c2.1,0,3.6,1.5,3.5,3.6c0,2.2-1.6,3.9-4,3.8c-2.2-0.1-3.6-1.7-3.5-3.8
		C373.3,274.7,374.6,273.3,377.2,273.3z M376.8,278.9c1.2,0,2-0.7,2.2-1.8c0.2-1.3-0.7-2-1.7-2.1c-1.4-0.2-2.3,0.6-2.4,1.9
		C374.8,278.2,375.7,278.7,376.8,278.9z"/>
	<path class="st1" d="M110.4,158.5c0.7,1.4,3.3,1.5,2.3,3.7c-0.3,0.6-0.8,1-1.4,0.5c-1.4-1-2.9-2.1-2.9-4.2c0-1.9,1-3.5,2.5-3.6
		c1.6-0.1,3.9-0.8,5.1,1.5c0.5,1,0.8,2-0.1,2.8c-0.8,0.7-1.6,0.2-2.1-0.8C112.7,156.5,111.6,158.2,110.4,158.5z"/>
	<path class="st1" d="M86.8,39.2c-0.3,2.2-1.6,3.6-3.7,3.8c-2.4,0.2-3.9-1.4-3.9-3.8c0-2.2,1.4-3.6,3.7-3.5
		C85.2,35.7,86.4,37,86.8,39.2z M82.8,41.3c1.2-0.1,2-0.6,2.1-1.8c0.1-1.4-0.7-2.2-2-2.3c-1.1-0.1-2,0.8-2.1,1.8
		C80.7,40.2,81.6,41.1,82.8,41.3z"/>
	<path class="st1" d="M322.4,73.1c-1.6,0.3-5.4-1.1-2.8,3c0.3,0.5-0.4,1-1,1.1c-1,0.1-2.6,0.3-2.9-0.6c-0.5-1.7-1-4.1-0.1-5.3
		C317.9,68,320.7,68.8,322.4,73.1z"/>
	<path class="st1" d="M57.3,22.5c-0.6,2.2-1.9,3.8-4,3.6c-2.2-0.2-3.8-1.7-3.4-4.2c0.3-2.2,1.7-3.4,4-3.1
		C56.1,18.9,57.1,20.4,57.3,22.5z M55.4,22c0.1-1.2-0.9-1.6-2-1.6c-1.2,0-1.9,0.8-1.8,2c0.1,1.1,0.6,2,2,1.9
		C54.8,24.1,55.5,23.5,55.4,22z"/>
	<path class="st1" d="M351.4,56.1c-0.5,2.4-1.9,3.9-3.9,3.8c-2-0.1-3.6-1.3-3.5-3.8c0.1-2.4,1.5-3.4,3.7-3.5
		C350,52.7,350.9,54.4,351.4,56.1z M349.5,55.6c-0.2-0.8-1-1.6-2.3-1.4c-1,0.2-1.9,0.9-1.7,2.1c0.2,1.3,1,2.1,2.4,1.9
		C349,58.1,349.6,57.3,349.5,55.6z"/>
	<path class="st1" d="M380.8,39.5c-0.6,2.2-2,3.7-4.1,3.5c-2.2-0.2-3.9-1.7-3.5-4.2c0.3-2.2,1.8-3.4,4.1-3.1
		C379.6,36,380.5,37.5,380.8,39.5z M377.5,41.3c0.6-0.4,1.8-0.8,1.6-2.1c-0.2-1.2-0.9-2.3-2.3-2.1c-1,0.1-2,0.9-1.9,2.1
		C374.9,40.6,375.8,41.3,377.5,41.3z"/>
	<path class="st1" d="M377.1,144.2c-3,0.6-3.8-1.2-3.9-2.9c-0.1-2.3,1.4-4,3.9-3.9c2.2,0.1,3.6,1.7,3.6,3.8
		C380.7,143.6,379.2,144.9,377.1,144.2z M379.1,140.9c-0.3-0.7-0.8-1.6-2-1.7c-1.2-0.1-2,0.5-2.3,1.6c-0.3,1.6,1,2.2,2.1,2.3
		C377.9,143.2,378.8,142.4,379.1,140.9z"/>
	<path class="st1" d="M141.8,9.1c-2.1-0.3-3.7-1.5-3.8-3.6c-0.2-2.4,1.3-3.9,3.8-3.9c2.3,0,3.5,1.4,3.6,3.6
		C145.3,7.6,144,8.7,141.8,9.1z M143.7,5.4c0-1.2-0.7-2-1.9-2.1c-1.1-0.1-2,0.4-2.1,1.7c-0.1,1.3,0.6,2,1.8,2.1
		C142.8,7.4,143.4,6.6,143.7,5.4z"/>
	<path class="st1" d="M171.4,229.8c-2.6-0.4-3.9-1.6-3.9-3.9c0-2.3,1.5-3.5,3.8-3.5c2.3,0,3.6,1.5,3.6,3.7
		C174.8,228.5,173.1,229.4,171.4,229.8z M173.1,225.9c0-1.1-0.6-1.8-1.8-1.8c-1.2,0-1.9,0.6-1.9,1.8c0,1.2,0.6,1.9,1.8,2
		C172.4,228,172.9,227.2,173.1,225.9z"/>
	<path class="st1" d="M116.1,361.9c-0.7,1.6-2,3.3-4.1,3.4c-2.1,0.2-3.4-1.6-3.5-3.4c-0.1-2.1,1.4-3.7,3.6-3.9
		C114.4,357.9,115.6,359.4,116.1,361.9z M114.4,362.1c0.1-1.5-0.8-2.2-2-2.3c-1.1-0.1-2.1,0.7-2.1,1.8c0,1.6,1.2,2.2,2.6,2.5
		C114.7,364.5,113.4,362.5,114.4,362.1z"/>
	<path class="st1" d="M380.8,310.9c-0.4,2.1-1.6,3.6-3.7,3.7c-2.4,0.1-4-1.5-4-3.9c0-2.2,1.6-3.6,3.8-3.6
		C379.1,307.2,380.5,308.6,380.8,310.9z M377.1,313c1.2-0.2,2-0.9,1.9-2c-0.1-1.3-0.9-2.2-2.3-2.1c-1.1,0.1-2,1-1.9,2.1
		C374.9,312.2,375.8,313,377.1,313z"/>
	<path class="st1" d="M263.1,310.9c-0.3,2.4-1.8,3.8-3.8,3.7c-2.1-0.1-3.6-1.7-3.6-3.8c0-2.2,1.7-3.7,3.8-3.6
		C261.5,307.3,262.9,308.7,263.1,310.9z M259.2,308.7c-1.2,0.5-2.2,1.1-1.9,2.5c0.2,1.1,1.1,1.8,2.2,1.6c1.1-0.1,2-0.8,1.9-2
		C261.4,309.7,260.5,308.9,259.2,308.7z"/>
	<path class="st1" d="M171.5,127.8c-2.4-0.2-4-1.2-4-3.5c-0.1-2.5,1.5-4,3.8-3.9c2,0.1,3.6,1.3,3.6,3.7
		C174.8,126.4,173.5,127.6,171.5,127.8z M171.3,122c-1.2,0.1-1.8,0.8-2,1.9c-0.2,1.3,0.6,2.1,1.7,2.2c1.2,0.2,2-0.6,2-1.9
		C173,123.2,172.6,122.3,171.3,122z"/>
	<path class="st1" d="M230.1,324.2c2.1,0.3,3.7,1.6,3.6,3.7c0,2.1-1.6,3.7-3.8,3.6c-2.1-0.1-3.6-1.4-3.6-3.7
		C226.3,325.4,227.8,324.4,230.1,324.2z M229.9,330.1c1.1-0.4,2.2-0.9,2.1-2.4c-0.1-1.2-0.9-1.9-2-2c-1.3-0.1-2.3,0.8-2.3,2
		C227.7,329.1,228.6,329.8,229.9,330.1z"/>
	<path class="st1" d="M86.8,141.3c-0.5,2.2-1.7,3.5-4,3.4c-2.3-0.1-3.6-1.4-3.5-3.6c0.1-2.5,1.6-3.9,4-3.6
		C85.4,137.7,86.6,139.2,86.8,141.3z M85,140.7c-0.2-0.6-0.6-1.5-1.9-1.6c-1.4-0.1-2.3,0.8-2.3,2c0,1.3,1.1,2.1,2.4,2
		C84.2,143.1,85,142.4,85,140.7z"/>
	<path class="st1" d="M114.8,222.9c2.3,2.3,1.6,3.9,0,6c-1.6,2.1-2.6,0.5-4,0.1c-3.9-1-3.2-3.8-3.4-7
		C112,228.2,112.4,228.2,114.8,222.9z"/>
	<path class="st1" d="M86.8,107.1c-0.4,2.2-1.8,3.7-3.8,3.7c-2.3,0-3.9-1.5-3.8-3.9c0.1-2.1,1.7-3.6,3.8-3.4
		C85.2,103.6,86.5,105.1,86.8,107.1z M84.9,106.6c-0.2-0.8-0.8-1.6-2-1.5c-1.3,0.1-2.2,0.9-2.1,2.3c0.1,1.1,1,1.9,2.2,1.9
		C84.2,109.2,85,108.4,84.9,106.6z"/>
	<path class="st1" d="M116.1,123.9c-0.3,2.2-1.1,3.8-3.5,3.9c-2.4,0.1-3.7-1.2-3.9-3.4c-0.1-2.2,1.3-3.7,3.5-3.9
		C114.4,120.3,115.6,121.8,116.1,123.9z M114.5,123.7c-0.5-0.8-1.1-1.9-2.6-1.6c-1.1,0.3-1.9,1.1-1.7,2.2c0.2,1.3,1.1,2.2,2.5,1.8
		C113.7,126,114.6,125.3,114.5,123.7z"/>
	<path class="st1" d="M380.8,107.2c-0.6,2.1-1.8,3.7-3.9,3.7c-2.1-0.1-3.7-1.4-3.7-3.7c0.1-2.2,1.6-3.7,3.8-3.6
		C379.1,103.5,380.4,105.1,380.8,107.2z M379.1,107c-0.3-1.1-0.9-2-2.3-2c-1.1,0-1.9,0.8-2,1.9c-0.2,1.4,0.9,2.2,2,2.3
		C378.1,109.4,378.9,108.5,379.1,107z"/>
	<path class="st1" d="M259.2,382.4c-2.4-0.1-3.6-1.7-3.6-3.7c0.1-2.1,1.5-3.7,3.8-3.6c2.2,0.1,3.7,1.7,3.6,3.8
		C262.9,380.9,261.7,382.5,259.2,382.4z M261.6,378.5c-0.4-1.2-1.3-2-2.6-1.8c-1.1,0.2-1.8,0.9-1.7,2.2c0.1,1.2,1,1.9,2.1,1.9
		C260.7,380.9,261.4,379.9,261.6,378.5z"/>
	<path class="st1" d="M380.8,73.1c-0.4,2.1-1.3,3.7-3.6,3.8c-2.3,0.1-3.8-1.3-3.9-3.5c-0.1-2.1,1.2-3.7,3.5-3.8
		C379,69.5,380.3,70.8,380.8,73.1z M376.6,75.3c1.5,0,2.3-0.8,2.4-2.1c0.1-1.1-0.7-2-1.9-2c-1.4-0.1-2.3,0.7-2.4,2.1
		C374.7,74.4,375.6,75.1,376.6,75.3z"/>
	<path class="st1" d="M116.1,327.8c-0.2,2-1.3,3.6-3.5,3.8c-2.3,0.2-3.8-1.4-3.9-3.5c-0.2-2.2,1.3-3.7,3.5-3.9
		C114.3,324,115.6,325.4,116.1,327.8z M112.1,325.6c-0.7,0.5-1.9,0.8-1.9,2c-0.1,1.4,0.8,2.3,2.1,2.3c1.1,0,2-0.8,2.1-1.9
		C114.6,326.6,113.6,326,112.1,325.6z"/>
	<path class="st1" d="M350.5,126.3c-2.6,2.4-4.9,2.2-6.4-1.1c-0.6-1.3-0.4-2.9,1.1-4c1.5-1.1,3.1-1.3,4.5,0
		C351.3,122.7,352.1,124.4,350.5,126.3c-1.7,0.1-1-1.1-1-1.8c0-1.4-0.4-2.4-2-2.3c-1.2,0.1-2.1,0.8-2,2c0.1,1.5,1.2,2.4,2.8,1.9
		C349.1,125.8,349.9,125.1,350.5,126.3z"/>
	<path class="st1" d="M112.2,399.2c-2.7,0-3.8-1.7-3.6-4c0.2-1.8,1.6-3.3,3.6-3.3c2,0,3.5,1.2,3.8,3.1c0.3,2.4-0.8,4-3.4,4.1
		c-0.4-1.8,3.4-2.6,1.1-4.8c-0.9-0.8-1.9-0.8-2.7,0C108.7,396.7,112.5,397.4,112.2,399.2z"/>
	<path class="st1" d="M231.2,25.1c-0.1,1.3-0.6,1.9-2,1.3c-2-0.8-3.8-2.1-4.5-3.9c-0.4-1,1.1-2.5,2.7-2.8
		C230.6,20.2,233.3,20.9,231.2,25.1z"/>
	<path class="st1" d="M174.8,260c-0.2,2.3-1.5,3.6-3.7,3.6c-2.1,0-3.7-1.4-3.6-3.7c0.1-2.2,1.3-3.6,3.7-3.5
		C173.5,256.4,174.7,257.7,174.8,260z M173.1,259.8c-0.2-1.2-0.8-2-2-1.9c-1.4,0.1-2,1-1.9,2.4c0.1,1.4,0.9,1.7,2.1,1.6
		C172.6,261.8,173,261,173.1,259.8z"/>
	<path class="st1" d="M229.8,93.9c-2-0.2-3.5-1.4-3.5-3.7c0-2.2,1.5-3.7,3.7-3.7c2.1,0,3.8,1.5,3.8,3.7
		C233.7,92.2,232.3,93.7,229.8,93.9z M229.9,88c-1.2,0.2-2,0.8-2.2,2c-0.2,1.4,0.9,2.3,2.1,2.4c1,0.1,2-0.7,2.1-1.9
		C232.2,88.9,231,88.4,229.9,88z"/>
	<path class="st1" d="M145.1,310.2c-0.6,2.7-1.1,4.8-3.6,4.4c-2.2-0.3-4-1.8-3.5-4.4c0.4-2.1,2-3.5,4.2-3.1
		C144,307.5,145.5,308.6,145.1,310.2z M141.8,308.8c-1.1,0.2-1.9,0.6-2.1,1.8c-0.2,1.2,0.5,2,1.5,2.2c1.4,0.3,2.3-0.7,2.4-1.9
		C143.7,309.9,142.9,309.1,141.8,308.8z"/>
	<path class="st1" d="M79.3,307.6c0.7,0,1.5,0.1,2.2-0.1c2.4-0.8,4.2,0,5.1,2.2c0.8,2-0.2,3.5-2,4.4c-2.3,1.2-4,0.3-5-2
		c0.7-0.1,1.4-0.3,2.1,0.3c1.1,1,2.2,0.7,3-0.4c0.6-0.8,0.5-1.7-0.1-2.4c-0.9-1-2-1.2-3-0.1c-0.7,0.7-1.4,1.1-2.4,0.8
		C79.6,309.4,79.8,308.6,79.3,307.6C79.3,307.7,79.3,307.6,79.3,307.6z"/>
	<path class="st1" d="M202.6,7.3C201,9.2,199.5,9.5,198,8c-1.7-1.8-1.7-3.7,0.1-5.4c1.7-1.5,3.7-1.5,5,0.2
		C204.3,4.3,205.8,6.3,202.6,7.3c-0.1-0.9,0-1.8-0.2-2.6c-0.3-1.2-1.3-1.7-2.4-1.3c-0.6,0.2-1.4,0.8-1.5,1.4
		c-0.3,1.1,0.3,2.1,1.5,2.3C200.8,7.3,201.7,7.3,202.6,7.3z"/>
	<path class="st1" d="M53.7,229.6c-2.4-0.2-3.8-1.3-3.8-3.7c0-2.3,1.4-3.6,3.7-3.6c2.3,0,3.7,1.5,3.7,3.6
		C57.2,228.2,55.8,229.5,53.7,229.6z M53.6,224.1c-1.1,0-1.9,0.5-1.9,1.7c0,1.2,0.5,2,1.8,2.1c1.2,0.1,1.9-0.5,2-1.7
		C55.5,224.9,54.9,224.2,53.6,224.1z"/>
	<path class="st1" d="M233.8,361.8c-0.6,2-1.6,3.6-3.9,3.6c-2.4,0-3.6-1.5-3.6-3.7c-0.1-2.3,1.7-3.6,3.7-3.6
		C232.1,358.1,233.4,359.7,233.8,361.8z M232,361.6c-0.2-1.2-1.1-1.8-2.1-1.8c-1.3,0-2.3,0.8-2.2,2.3c0.1,1.1,1,2,2.1,1.9
		C231.1,363.9,232,363,232,361.6z"/>
	<path class="st1" d="M380.9,175c-0.5,1.7-1.4,4-3,3.1c-1.6-0.8-5.1,0.4-4.8-3.1c0.2-2.3,1.6-3.9,4.1-3.7
		C379.3,171.5,380.5,173.1,380.9,175z M376.9,173.1c-1,0.2-2.1,0.6-2.1,1.9c0,1.1,0.6,2.1,1.8,2.1c1.2,0,2.4-0.6,2.3-2.1
		C379,173.8,378,173.3,376.9,173.1z"/>
	<path class="st1" d="M259.3,76.7c-2.4,0-3.7-1.6-3.6-3.6c0-2,1.3-3.7,3.7-3.6c2.2,0.1,3.7,1.5,3.7,3.6
		C263,75.3,261.6,76.7,259.3,76.7z M261.6,73.4c-0.3-1.2-0.8-2.3-2.2-2.3c-1.4,0-2.1,0.8-2.2,2.2c0,1.2,0.7,1.9,1.8,2
		C260.5,75.5,261.2,74.6,261.6,73.4z"/>
	<path class="st1" d="M380.8,345c-0.6,1.7-1.4,3.4-3.8,3.4c-2.4,0-3.6-1.5-3.7-3.6c-0.1-2.2,1.5-3.7,3.7-3.7
		C379.1,341.1,380.3,342.7,380.8,345z M374.7,344.7c0.2,1.4,0.9,2.3,2.2,2.3c1.3,0,2.2-0.9,2.2-2.3c0-1.1-0.8-1.9-1.9-2
		C375.8,342.7,375,343.5,374.7,344.7z"/>
	<path class="st1" d="M373.9,6.4c-2.4-1.9-0.8-4.4,0.3-5.2c1.1-0.8,3.9-1.3,4.9,1.5C379.4,6.8,377.9,8.2,373.9,6.4z"/>
	<path class="st1" d="M81.4,347.2c-2.2-1.3-2.7-2.1-1.8-3.9c1-1.9,2.7-2.8,4.8-1.8c1.9,0.9,3,2.5,2,4.6c-1.1,2.1-2.8,2.9-5.1,1.7
		c-0.1,0-0.1-0.2-0.1-0.3C81.2,347.4,81.3,347.3,81.4,347.2c0.8-0.2,1.8-0.2,2.5-0.5c1.1-0.5,1.3-1.6,0.9-2.7
		c-0.4-0.9-1.1-1.4-2.1-1.3c-1.2,0.2-2,0.9-2,2C80.6,345.6,81.1,346.4,81.4,347.2z"/>
	<path class="st1" d="M116.1,90.1c-0.2,2.1-1.4,3.7-3.6,3.8c-2.2,0.1-3.7-1.4-3.9-3.5c-0.2-2.3,1.4-3.7,3.5-3.8
		C114.4,86.3,115.6,87.9,116.1,90.1z M114.6,90c-0.6-1.1-1.2-2.1-2.6-1.8c-1,0.3-1.9,1-1.7,2.2c0.2,1.1,1,2,2.1,1.9
		C113.6,92.3,114.4,91.3,114.6,90z"/>
	<path class="st1" d="M139.7,173.1c1.6-2.1,2.9-2.4,4.4-0.8c1.8,1.8,1.8,3.8,0,5.5c-1.7,1.6-3.7,1.4-5.1-0.3
		C137.9,176.1,136.3,174.1,139.7,173.1c0,0.7,0,1.4,0.1,2.1c0.1,1.3,1,1.7,2.1,1.7c1.2,0,2-0.7,1.9-1.9c0-1.1-0.8-1.9-2-1.9
		C141.1,173.1,140.4,173.1,139.7,173.1z"/>
	<path class="st1" d="M350.6,225.8c-1.3-1.1-2.6-2.5-4.5-0.9c-1.2,0.8-1,1.5,0,2.2c1,1.4,2.5,0,3.8,0.8c-1.4,2.5-3.3,2.1-4.9,0.6
		c-1.7-1.5-1.7-3.4-0.2-5.1c1.5-1.6,3.4-1.9,5.1-0.3c0.7,0.7,1,1.8,1.4,2.7C351.1,225.9,350.8,225.9,350.6,225.8z"/>
	<path class="st1" d="M256.2,278.8c-2.4-2.2-1.4-3.9,0.8-5.3c1.7-1.2,3.4-1.4,3.9,1.3C262.7,280.1,258.9,278.8,256.2,278.8z"/>
	<path class="st1" d="M379.1,381.3c-0.6,2.4-2.2,2-3.8,1.2c-2.1-1-3.4-2.4-2-4.9c0.7,0,1.7,0.4,1.3-1c0,0,0,0,0,0
		C377.9,376.4,379.6,377.8,379.1,381.3z"/>
	<path class="st1" d="M113.6,258.3c1.9-0.4,2.2,0.4,2.1,2.2c-0.2,2.1-1.5,2.9-3.2,3.1c-1.9,0.3-2.9-1-3.7-2.5c-0.8-1.7,0-3,1.1-3.9
		c1.6-1.3,2.7,0.1,3.7,1.2c-1.4-1.5-2.4-0.4-3.2,0.6c-0.6,0.8-0.3,1.7,0.4,2.3c0.7,0.6,1.7,0.7,2.5,0.3
		C115,260.7,114.2,259.5,113.6,258.3z"/>
	<path class="st1" d="M286.7,87.3c4-3.4,4.6,1.7,6.3,3c0.9,0.7-1.1,2.5-2.7,3C287.1,92.5,286.2,90.4,286.7,87.3z"/>
	<path class="st1" d="M286.8,262c-3.2-1.1-2-3-0.6-4.5c1.5-1.7,3.5-1.6,5.1,0c1.7,1.6,1.6,3.6-0.1,5
		C289.7,263.7,287.7,265.3,286.8,262c0.7-0.1,1.4,0,2.1,0c1.3-0.1,1.9-1,1.8-2.1c0-1.1-0.8-2-2-2c-1.1,0-2,0.7-2,1.9
		C286.7,260.5,286.8,261.2,286.8,262z"/>
	<path class="st1" d="M169.3,393.7c1.6-2,2.8-2.2,4.4-0.6c1.6,1.6,1.8,3.5,0.1,5.1c-1.7,1.7-3.8,1.8-5.4-0.2
		C167.2,396.5,166.1,394.6,169.3,393.7c0,0.7,0,1.4,0,2.1c0,1.2,0.7,2,1.8,2c1.1,0,2-0.6,2-1.9c0-1.2-0.4-2-1.7-2.1
		C170.7,393.7,170,393.7,169.3,393.7z"/>
	<path class="st1" d="M256.5,6.4c-1.2-0.1-2.5-0.9-1.3-1.8c1.6-1.2,1.8-4.7,4.7-3.4c0.9,0.4,2.7,0.6,2.6,2.4C262,3.8,261,3.9,261,4
		C262,9.3,258.6,6.7,256.5,6.4z"/>
	<path class="st1" d="M259.9,110.5c-2.5,1.2-3.6-0.5-4.6-2.3c-0.7-1.3-1.4-2.8,1.1-3.2C262.4,105.8,262.4,105.8,259.9,110.5z"/>
	<path class="st1" d="M54.6,121.2c2.6,0.3,3,2.2,2.4,4.2c-0.5,1.7-2,2.5-3.8,2.4c-1.8-0.2-3-1.1-3.3-3c-0.2-1.5,0-2.5,1.8-2.8
		c1.2-0.2,0.3,0.7,0.7,0.7c0,0,0,0,0,0c-1.3,1.1-1.3,2.2,0.2,3.1C58,126.2,54.4,122.9,54.6,121.2z"/>
	<path class="st1" d="M22.2,173.1c0.9-3.3,2.9-1.8,4.3-0.7c1.8,1.4,1.8,3.4,0.3,5c-1.7,1.8-3.8,1.9-5.4,0
		C20.3,176,19,174,22.2,173.1c0,0.8-0.1,1.7,0.1,2.6c0.2,1,0.9,1.4,1.9,1.4c0.9-0.1,1.7-0.5,1.9-1.5c0.2-1.1-0.2-2.1-1.4-2.4
		C23.9,173,23,173.1,22.2,173.1z"/>
	<path class="st1" d="M227.8,53.5c2.1-1.3,3.8-1,5.3,1c1.1,1.6,0.6,3.1-0.6,4.3c-1.3,1.3-2.9,1.6-4.4,0.5c-2-1.4-2.5-3.2-0.8-5.2
		c0.2,0.3,0.4,0.6,0.7,0.9c-0.5,1.7,0,3,1.9,3.3c1.2,0.2,2.2-0.6,2.2-1.7c0.1-2.2-1.2-2.8-3.2-2.4C228.4,53.9,228.1,53.7,227.8,53.5
		z"/>
	<path class="st1" d="M290.6,189.3c1.8,0.5,3.8,1.5,2.7,3.4c-0.8,1.4-1.7,4.4-4.7,2.8c0.2-2.1-3.1-3-1.8-5.4c0,0,0,0,0,0
		C288.1,190.1,289.5,190.6,290.6,189.3z"/>
	<path class="st1" d="M198.1,108.6c-1.5-0.1-2-0.9-1.8-2.3c0.3-2.4,2.8-2.3,4.1-3.4c1.1-0.9,1.9,0.6,2.1,1.9
		C201.9,107,202.7,110.9,198.1,108.6z"/>
	<path class="st1" d="M346,291.5c0.3-2,1.2-3.4,3.1-1.6c1.7,1.6,5.1,3.1,1.4,6.1c-0.2-0.3-0.2-0.6-0.1-0.9c-0.3-0.5-0.5-1.4-0.8-1.4
		c-1.1-0.1-0.9,0.8-1,1.6C344.1,296.7,345.9,293.5,346,291.5z"/>
	<path class="st1" d="M261.5,347.5c-2.1,1.6-3.9,1.1-5.3-0.9c-1-1.6-0.7-3.2,0.7-4.4c1.2-1.1,2.6-1.5,4.1-0.6
		c2.1,1.3,2.6,3.1,1.1,5.3c-0.2-0.3-0.5-0.6-0.7-0.9c0.4-2-0.3-3.3-2.4-3.2c-1.1,0-1.9,1-1.7,2.2c0.2,2,1.7,2.2,3.3,1.9
		C260.9,347.1,261.2,347.3,261.5,347.5z"/>
	<path class="st1" d="M143.9,346.3c-0.3,3.3-2.6,2.3-4.1,1.6c-1.7-0.8-2.6-2.5-1.6-4.4c1-1.8,2.4-2.9,4.7-2c1.4,0.5,2.1,1.5,2.1,3
		c-1.8,0.3-2.8-3.3-4.9-0.9c-0.7,0.7-0.7,1.7-0.2,2.5C141.1,347.6,142.6,346.8,143.9,346.3z"/>
	<path class="st1" d="M256.5,173.9c0.2-2.8,2.1-3.1,4.1-2.3c2,0.8,3,2.4,2.1,4.7c-0.8,2.2-2.5,2.8-4.7,2.3c-1.1-0.3-0.3-1.3-0.6-1.9
		c0.5,0,1,0,1.5,0c0.9,0.3,1.5,0,1.8-0.9C261.1,172.9,260.8,172.8,256.5,173.9z"/>
	<path class="st1" d="M169.3,24.3c-2.8-0.9-2.1-2.7-0.9-4.3c1.4-1.8,3.4-1.9,5-0.5c1.9,1.5,2.1,3.6,0.2,5.3
		C172.2,26.1,170.4,27.4,169.3,24.3c0.7,0,1.4,0,2.1-0.1c1.2-0.1,1.8-1,1.7-2.1c-0.1-1.2-0.8-1.9-2-1.9c-1.2,0-1.8,0.8-1.9,2
		C169.2,22.9,169.3,23.6,169.3,24.3z"/>
	<path class="st1" d="M56.3,58.4c-1.4,2.9-3.5,2.4-5.1,0.6c-0.6-0.7-4.6-2.8-0.1-4.3c3.9-0.9,3.9-0.9,3.7,2.9
		C54.7,58.9,55.8,58.2,56.3,58.4z"/>
	<path class="st1" d="M115,291.7c1.6,2,1.2,3.8-0.8,5.3c-1.5,1.2-3.1,0.8-4.4-0.5c-1.3-1.2-1.7-2.7-0.7-4.4c1.4-2.1,3.2-2.3,5.3-1.1
		c-0.3,0.3-0.7,0.5-1,0.8c-1.9-0.3-3.3,0.3-3.2,2.4c0,0.9,0.9,1.6,1.8,1.6c2.1,0,2.8-1.2,2.3-3.2C114.6,292.4,114.8,292,115,291.7z"
		/>
	<path class="st1" d="M318.4,138.7c3.4,0.8,4.1,2.1,3.1,4.1c-0.9,1.8-2.6,2.5-4.5,1.7c-2.6-1-2.8-3-1.7-5.9c1.6,1.6,0.8,5.2,3.9,4.1
		C320.9,142,320.1,140.5,318.4,138.7z"/>
	<path class="st1" d="M22.2,341.9c3-3.2,3.9,0.5,5.3,1.7c1.5,1.3,1.6,2.8-0.8,3.5C22.7,347.5,21.8,345.3,22.2,341.9z"/>
	<path class="st1" d="M202.5,313.3c-1.8,1.6-3.9,2.1-5.5,0c-1.1-1.4-1.8-3.3,1.1-3.8C202.6,307.2,202.1,310.8,202.5,313.3z"/>
	<path class="st1" d="M79.1,72.9c0.9-1.7,1.6-3.6,4-3.4c1.8,0.2,3.1,1.1,3.5,2.9c0.4,1.6-0.4,3-1.7,3.8c-1.7,1-3.4,1.2-4.6-0.9
		c1.5-0.5,3.7,0.8,4.5-1.5c0.3-0.8,0-1.7-0.8-2.3c-2-1.5-2.7,1.1-4.2,1.2C79.6,72.7,79.4,72.9,79.1,72.9z"/>
	<path class="st1" d="M345.1,88.9c-0.3-0.9-0.8-1.6,0.8-2c1.8-0.5,3.2-0.3,4.4,1c0.9,1,1.4,2.2,0.7,3.7c-1.3,2.9-4.1,2.9-6.8,0
		c0.4-0.1,1-0.4,1.3-0.3c1.3,0.7,2.5,1.9,3.7,0.1c0.5-0.8,0.5-1.7-0.1-2.5C347.8,87.3,346.4,88.6,345.1,88.9z"/>
	<path class="st1" d="M55.5,156c2.2,1.8,2.3,2.8,0.6,4.5c-1.6,1.6-3.4,1.6-5.1,0.1c-1.6-1.6-1.7-3.5,0-5
		C52.5,154.3,54.3,153,55.5,156c-0.7,0-1.4,0-2.1,0c-1.2,0.1-1.9,0.9-1.8,2.1c0.1,1.1,0.7,2,2,2c1.1,0,1.9-0.7,2-2
		C55.5,157.5,55.5,156.8,55.5,156z"/>
	<path class="st1" d="M318.9,211.6c-2.3,1.7-3.6,0.3-4.3-1.6c-0.7-2.1,0.4-3.9,2.5-4.5c2.1-0.6,3.9,0.2,4.4,2.5
		c0.2,0.9-0.4,1.9-0.6,2.9c-0.8-0.4-0.8-1.1-0.8-1.8c0-1.2-0.6-1.9-1.8-1.9c-1-0.1-1.7,0.4-2,1.3
		C315.6,210.8,318.1,210.5,318.9,211.6z"/>
	<path class="st1" d="M25.8,307.7c2.2,0.4,3.1,2.2,2.5,3.8c-0.7,1.8-2.2,3.7-4.8,3C21.2,311.1,22.3,309,25.8,307.7z"/>
	<path class="st1" d="M203.7,41.3c-1.9,2-4.1,2.6-6,0.3c-1.6-1.9-1.5-4.1,1.1-5.4c0.2,0.5,0.3,1.1,0.5,1.6c-0.9,1-1,2.1,0.1,2.9
		c0.7,0.6,1.2,0,1.4-0.8l0.2-0.2l0.4,0l0.3-0.2c0,0,0,0,0,0c0.3,0.3,0.7,0.5,1,0.8C203.1,40.7,203.4,41,203.7,41.3z"/>
	<path class="st1" d="M256.4,244c-1.9-0.3-2.6-1.7-0.9-2.4c1.6-0.6,2.4-6,5.3-1.4C260.9,245.5,260.9,245.5,256.4,244z"/>
	<path class="st1" d="M113.7,53.1c3,1.4,2.9,3.6,1.2,5.7c-1.4,1.8-3.5,1.8-5.1,0.1c-2.2-2.4-1.7-4.5,1.2-6c0,0.4,0.3,1,0.1,1.3
		c-0.9,1.3-1.6,2.6,0.1,3.8c0.8,0.6,1.6,0.5,2.4-0.2c1.3-1.2,1-2.3-0.1-3.4C113.4,54.1,113.7,53.5,113.7,53.1z"/>
	<path class="st1" d="M374,244.1c-3-2.6,0.7-3.7,1.6-5c0.6-1,3-1.2,3.6,1.2C379.4,244.1,378.2,246.1,374,244.1z"/>
	<path class="st1" d="M317,312.2c0.1,0.9,0.2,2.1-1.1,1.4c-1.5-0.8-1.7-2.4-1.2-3.9c0.5-1.5,1.8-2.6,3.2-2.7
		c1.9-0.1,3.2,1.5,3.9,3.1c0.6,1.4-0.3,2.5-1.7,3c-1.4,0.5-0.8-0.6-0.9-1.1l0,0c1-0.3,0.9-1,0.7-1.8c-0.3-1.4-1.1-2.1-2.4-1.3
		C316.1,309.9,315.6,311,317,312.2z"/>
	<path class="st1" d="M22.7,280.3c-2.2-1.7-3.1-3.3-1.5-5.5c1.3-1.8,3-2,4.7-1.1c2.2,1.1,2.3,3,1.3,5.4c-1.9-1.2-0.4-5.1-3.7-4
		C20.8,276.1,23.3,278.3,22.7,280.3z"/>
	<path class="st1" d="M20.7,143c0-0.9,0.7-1.3,1.2-1.1c2.4,0.8,3.3,0.1,3.1-2.4c-0.1-0.8,0.6-1.4,1.5-1.2c1.7,0.2,2.1,1.5,2,2.9
		c-0.1,3.1-3.4,2.3-4.9,3.8C23.3,145.4,21.2,144.4,20.7,143z"/>
	<path class="st1" d="M286.7,156.1c1.1-3.2,3-1.7,4.4-0.5c1.7,1.5,1.7,3.4,0,5c-1.6,1.5-3.6,1.6-5.1-0.1
		C284.9,159,283.5,157.1,286.7,156.1c0,0.7-0.1,1.4,0,2.2c0.1,1.2,0.9,1.9,2,1.9c1.2,0,1.9-0.8,2-2c0.1-1.2-0.6-2-1.8-2.1
		C288.2,156,287.5,156.1,286.7,156.1z"/>
	<path class="st1" d="M315.4,41.4c-1.6-2-1.1-3.5,0.3-4.9c1.2-1.1,2.7-1.3,4.1-0.5c1.4,0.7,2.2,2,2,3.6c-0.1,0.5-0.4,1-0.8,1.4
		c-0.2,0.2-0.9,0.2-0.9-0.5c-0.1-1.4,0.1-3.2-2.1-3.1C315.7,37.5,316.9,40.1,315.4,41.4z"/>
	<path class="st1" d="M173.8,160.2c-0.4,1.6-1.5,3.1-2.9,2.5c-1.4-0.7-4-1.1-3.3-3.9c1,0.7,1.8,1.2,1.8-0.7c-0.1-1.3,0.8-1.8,2-1.9
		c1.4-0.1,1.6,0.9,1.9,2C173.3,158.9,173.6,159.5,173.8,160.2z"/>
	<path class="st1" d="M84.1,279.8c-1.4,1.5-2.8,1.2-4.1,0c-1-1-2.3-2.1-0.4-3.5c1.7,0.3,2.8-2.6,4.7-0.9
		C86,276.9,83.9,278.3,84.1,279.8z"/>
	<path class="st1" d="M348.7,330.9c-2.6,2.5-3.5-0.7-4.7-1.7c-1.3-1.1-1.3-2.9,1-3.6C349.8,326.9,349.8,326.9,348.7,330.9z"/>
	<path class="st1" d="M349.6,25.4c-0.9,1.8-2.3,1.6-3.6,0.6c-1.5-1-3.2-2.1-1.9-4.4c5.1-2,5.1-2,5.2,3.5
		C349.3,25.2,349.5,25.3,349.6,25.4z"/>
	<path class="st1" d="M198.1,343.5c-0.1-2.5,1.7-2.5,3.3-2.2c1.7,0.4,2.9,1.7,2.9,3.5c0,1.8-1,3.1-2.8,3.5c-1.3,0.3-2.7,0.3-3.5-1.2
		c0.7-1.2,1.5-0.1,2.3-0.2c2.3-0.2,2.8-1.6,1.8-3.3C201,341.9,199.4,343,198.1,343.5z"/>
	<path class="st1" d="M169.2,194.7c-2.3-0.2-2.8-1.3-1.9-3.3c0.6-1.2,0.2-3.8,2.9-2.1c0.3,1.6,3.3,0.3,3,2.8
		C172.8,194.5,170.5,193.8,169.2,194.7z"/>
	<path class="st1" d="M109.2,24.2c0-1.2,0.7-1.6,1.8-1.7c0.1,0.1,0.3,0.1,0.4,0.2c-0.1-0.1-0.3-0.1-0.4-0.2
		c-0.4-1.1-2.6-0.4-2.3-2.1c0.2-1.3,1.6-1.6,2.6-2.1c1.5-0.6,2.9-0.7,3.3,1.4c-0.1,0.3-0.3,0.3-0.6,0.2c-0.5,0.1-1.1,0.3-0.3,0.8
		C115.3,25.9,111.2,23.7,109.2,24.2z"/>
	<path class="st1" d="M50.8,295.3c-1.7-0.6-2.4-1.9-0.6-2.7c1.7-0.8,1.5-4.7,4.6-2.9c1.3,0.8,3.4,1.2,3.2,3.3
		c-0.2,1.8-1.5,0.8-2.4,0.4c-2-0.8-3.8-1.2-4.4,1.6C51,295.1,50.9,295.2,50.8,295.3z"/>
	<path class="st1" d="M50.9,325.6c1.9-2.2,3.8-1.8,5.5,0.1c1.3,1.4,1.4,3,0,4.3c-1.7,1.5-3.6,2.2-5.5,0.1c0.7,0,1.5-0.1,2.2-0.1
		c1.6-0.1,2.6-1,2.2-2.6c-0.4-1.5-1.4-2.1-3-1.2C51.8,326.5,51.2,326.2,50.9,325.6z"/>
	<path class="st1" d="M320.4,240.4c2.5,0.6,2.4,2.1,1.5,3.9c-1.2,2.5-2.4,1-3.6,0c-0.1-0.1-0.7,0.3-1,0.5c-0.3,0-0.6,0-1,0.1
		c0,0,0,0,0,0C315.4,241.4,317.7,240.7,320.4,240.4z"/>
	<path class="st1" d="M286.9,224.2c0.1-2.9,2-2,3.4-1.4c1.7,0.7,2.4,2.2,1.9,4c-0.5,2-1.9,3.1-3.9,2.8c-1.2-0.2-3.3-0.4-2.4-2.8
		c1.4,0.6,2.7,2,4.3,0.5c0.4-0.4,0.6-1.4,0.4-2C289.9,223.5,288.3,224.1,286.9,224.2z"/>
	<path class="st1" d="M199.9,382.3c-2.2-0.5-3.2-1.9-3-4.1c0.2-1.9,1.6-2.9,3.3-3.1c1.6-0.1,3.3,0.3,3.1,2.7l0.1,0.1
		c-1.4-0.3-2.8-1.9-4.2-0.3c-0.9,1-0.7,2.1,0.6,2.8C199.8,381,199.8,381.6,199.9,382.3z"/>
	<path class="st1" d="M141.5,76.3l-0.3,0.2c0,0-0.3-0.1-0.3-0.1c-0.1-0.5-0.2-1.1-0.3-1.6c0-0.9,0-1.7,0-2.6
		c0.5-2.5,2.8,0.1,3.6-1.3c2,1.4,2.1,3.1,0.7,4.9C144,77,143,78.1,141.5,76.3c0.3-0.6,0.6-1.2,0.9-1.8c0.1-0.1,0.2-0.1,0.3-0.2
		c0,0,0-0.2,0-0.2c-0.1,0.2-0.2,0.3-0.3,0.5C141.6,74.8,141.5,75.5,141.5,76.3z"/>
	<path class="st1" d="M143.4,104.1c3.7,2.1,3.6,3.7-0.1,6.3c-0.7-1.6-3.4-0.6-3.6-3.1C139.4,104.3,142.9,106,143.4,104.1z"/>
	<path class="st1" d="M289.8,121.7c2.7,0.2,3.1,2,2.1,4c-1,2-2.9,2.5-4.9,1.6c-1.7-0.8-2.7-2.3-1.8-4.3c0.1-0.2,1-0.1,1.5-0.1
		c-0.2,2-0.1,3.6,2.6,2.9c1.4-0.6,1.6-1.5,0.7-2.7C290,122.6,289.9,122.2,289.8,121.7z"/>
	<path class="st1" d="M286.7,295.4c-2,0.4-1.9-1-1.7-2.1c0.3-1.5,1.4-2.6,3-2.8c2.2-0.3,3.7,0.7,4.3,2.9c-0.1,0.6-0.2,1.2-0.2,1.8
		c-0.6,0.3-1.2,0.5-1.8,0.8c0,0,0.2-0.4,0.2-0.4l-0.4-0.2c0.2-1.4,0.8-3.1-1.4-3.3c-1.4-0.1-2.4,0.8-1.9,2.5
		C286.9,294.8,286.8,295.1,286.7,295.4z"/>
	<path class="st1" d="M345.4,159.8c-1.4-0.1-2.3-0.8-2-2.3c0.2-1.3,0.9-2.2,2.3-2.3c1-0.1,2.1,0,3.1,0.1
		C349.9,158.5,350,161,345.4,159.8z"/>
	<path class="st1" d="M25.8,5.5c0.6-1.8-0.7-2.2-1.8-2.1c-2.1,0.2-1.7,2.1-1.9,3.5c-0.3-0.1-0.5,0-0.7,0.3c-1.8-1.5-1-2.9,0.1-4.2
		c0.9-1.2,2.3-1.5,3.6-1.1c2.1,0.7,2.9,2.4,2.5,4.6C26.8,6.6,25.9,6.7,25.8,5.5z"/>
	<path class="st1" d="M170.3,331.3c-2.4-0.5-3.2-2.1-2.8-4.3c0.3-1.6,1.5-2.6,3.1-2.9c3.3-0.7,2.9,2.4,4,3.9c-0.4-0.3-1-0.5-1.3-0.9
		c-0.7-1-1.5-1.9-2.8-1.2c-1.3,0.7-1.5,2-0.7,3.3C170.1,329.9,170.1,330.6,170.3,331.3z"/>
	<path class="st1" d="M319.3,104c2.8,0.9,3.4,2.9,1.9,5.1c-1.5,2.3-3.7,2.5-6.6-0.5c5.6,1.4,6.2-0.7,4.5-4.4
		C319.2,104.2,319.3,104,319.3,104z"/>
	<path class="st1" d="M138.6,376.7c2.1-2.3,4.5-2.5,6.2,0.1c1.7,2.7,0,4.6-2.6,5.8c0.1-0.9,0.2-1.8,0.3-2.7c1.4-0.4,1.3-1.3,0.6-2.3
		c-0.3-0.9-0.9-0.9-1.6-0.8c-0.8,0.2-1.5,0.3-2.3,0.5C139,377.2,138.8,377,138.6,376.7z"/>
	<path class="st1" d="M349.6,194.7c-1.8,2-3.5,1.1-4.9-0.4c-1.3-1.4-1.2-3.1,0-4.5c1.4-1.6,3.1-2.3,5-0.5c-0.3,0.8-1,0.9-1.7,0.8
		c-1.3-0.1-2.4,0.4-2.6,1.7c-0.2,1.3,0.8,2,2.1,2.2C348.2,194.1,348.9,194.5,349.6,194.7z"/>
	<path class="st1" d="M287.6,330.9c-2.6-0.6-3.3-2.4-2.2-4.6c0.8-1.8,2.5-2.8,4.4-1.9c2.1,1,1.8,2.7,0.7,4.4c0.6-1.9-0.3-3.1-2-2.9
		c-1.7,0.2-2.3,1.7-1.3,3.4C287.4,329.8,287.5,330.4,287.6,330.9z"/>
	<path class="st1" d="M55.7,194.7c-1.8,1.8-3.5,1.2-5-0.4c-1.3-1.4-1.2-3-0.1-4.4c1.4-1.7,3.1-2.3,5-0.6c-0.4,0.4-0.7,0.7-1.1,1.1
		c-0.3,0-0.6-0.1-0.9-0.1c-1.3-0.3-2,0.4-2.1,1.5c-0.1,1.3,0.5,2.3,2.1,2c0.3-0.1,0.6-0.1,0.9-0.2C55.2,193.7,55.5,194.1,55.7,194.7
		z"/>
	<path class="st1" d="M170.1,360.3c-2.2,0.3-2.2-0.5-0.7-1.7c1.4-1.1,2.9-0.6,4.1,0.3c1.2,0.8,1.6,2.2,1.3,3.6
		c-0.6,2.2-2,3.2-4.3,2.6c1.6-0.9,2.9-2.1,2.3-4.1C172.5,359.7,171.4,359.3,170.1,360.3z"/>
	<path class="st1" d="M232.1,156.1c1.6,0.1,2.3,1.3,1.7,2.4c-0.9,1.7-2.3,3.3-3.8,4.3c-0.6,0.4-1.4-1.2-1.5-2.3c0-0.3,0-0.6,0.1-0.8
		c0.6-0.3,2,0.4,1.8-0.9c-0.2-1-1.5-1-2.5-1C228.5,155.4,230.5,156.4,232.1,156.1z"/>
	<path class="st1" d="M200.6,240.8c-1.2,0.4-2.3,1.1-2,2.5c0.4,2.3,2.6,1.2,4.1,2.1c-1.2,1.9-2.7,1.5-4.2,0.6
		c-1.5-0.9-1.8-2.4-1.4-3.9c0.6-2.2,2.3-2.9,4.5-2.5C201.7,240.3,201,240.4,200.6,240.8z"/>
	<path class="st1" d="M292.2,23.4c-2.1,2.6-4.6,2.8-6.2,0.6c1.2-1,0.1-3.6,2.5-3.7c2.2-0.1,2.3,1.5,2.5,3.1
		C290.9,23.4,291.7,23.4,292.2,23.4z"/>
	<path class="st1" d="M232.2,291.4c2.3,1.6,1.7,3.4,0.2,5.1c-1.2,1.3-2.8,1.6-4.3,0.5c-2-1.4-2.4-3.1-0.9-5.2
		c0.2,0.3,0.5,0.6,0.7,0.9c-0.5,2,0.1,3.5,2.3,3.2c2.2-0.3,2.4-1.9,1.2-3.7C231.7,292,231.9,291.7,232.2,291.4z"/>
	<path class="st1" d="M228.3,125.2c4.5,2.8,3.1-1.3,3.7-3.4c1.8,0.9,2.2,2.1,1.3,3.8c-0.9,1.6-2.2,2.6-4,2c-1.1-0.4-3.7,0.1-2.5-2.7
		C227.3,125,227.8,125.1,228.3,125.2z"/>
	<path class="st1" d="M227.6,257.5c1.3-2.5,2.9-2.2,4.3-0.2c1,1.4,3.5,3.1,0.1,4.6c-1.3-0.4-3.2,0.9-3.9-1.4c0.7-0.6,2-0.6,2-2
		c-1.3-0.1-1.7,0.8-2.1,1.7C227.8,259.4,227.7,258.4,227.6,257.5z"/>
	<path class="st1" d="M319.9,376.4c2.1,1.2,2.7,2.7,1.1,4.7c-1.3,1.6-3.2,1.9-4.7,0.7c-1.8-1.3-2.8-3.2-0.7-5.2
		c1.5,1-0.2,4.8,3.1,4.2C321.1,380.3,319.7,378,319.9,376.4z"/>
	<path class="st1" d="M170.3,331.3c-0.2-0.7-0.3-1.4-0.6-2c-0.8-1.4-0.6-2.6,0.7-3.3c1.3-0.7,2.1,0.3,2.8,1.2
		c0.3,0.4,0.9,0.6,1.3,0.9C174.6,331,173.8,332.9,170.3,331.3z"/>
	<path class="st1" d="M140.6,239.7c2.8-2.2,4,0,4.9,2c1,2.1,0.6,3.8-2.2,4.1c-0.6,0.1-0.9-0.2-1-0.8c1-1.8,1.5-3.5-1.5-3.6
		C140.8,240.8,140.7,240.2,140.6,239.7z"/>
	<path class="st1" d="M23.1,210.8c1.3,0,3.1,0.3,3-1.6c-0.2-3.2-3-1.3-4.7-2c1.4-2.1,3-2.2,4.8-1c1.6,1,2,2.7,1.3,4.3
		c-0.8,2-2.4,2.5-4.3,1.3C23.1,211.4,23.1,211.1,23.1,210.8z"/>
	<path class="st1" d="M79.6,241.3c0.4-2.3,2.1-2.8,3.9-2.6c2,0.1,3,1.8,3.6,3.5c0.6,1.8-0.1,3.1-2,3.6c0-0.3-0.1-0.6-0.1-0.9
		c1-4.2-2-3.6-4.4-3.6C80.3,241.3,80,241.3,79.6,241.3z"/>
	<path class="st1" d="M316.3,278.8c-3.1-0.5-1.8-2.4-1.1-3.8c1.1-2.1,3.2-2.2,4.9-1c2,1.3,2.5,3.1,0,5.3c-0.4-1.9,0.4-4.6-2.2-4.4
		C315.7,275.1,316.4,277.3,316.3,278.8L316.3,278.8z"/>
	<path class="st1" d="M319.9,376.4c-0.2,1.5,1.2,3.9-1.3,4.4c-3.3,0.6-1.6-3.1-3.1-4.2C316.8,373.9,318.3,373,319.9,376.4z"/>
	<path class="st1" d="M349.6,25.4c-0.1-0.1-0.3-0.2-0.3-0.3c-0.1-5.5-0.1-5.5-5.2-3.5c0.7-3.1,3-3.8,5.3-2.4
		C352,20.8,352,23.2,349.6,25.4z"/>
	<path class="st1" d="M141.4,142.9c0.5-0.2,1.1-0.3,1.6-0.5c0.6-0.6,1.3-0.8,2.1-0.6c-1.1,2.7-3.1,4-5.7,2.2c-2.4-1.7-1.9-3.9,0.2-6
		c1.9,1.4-1.4,3.5,0.9,4.5C140.9,142.6,141.1,142.7,141.4,142.9z"/>
	<path class="st1" d="M84.1,279.8c-0.2-1.5,1.9-2.9,0.2-4.4c-1.9-1.7-3,1.1-4.7,0.9c-0.4-2.5,1.4-2.9,3.2-3c2-0.1,3.4,1,3.8,2.9
		C87,278.1,86.5,279.7,84.1,279.8z"/>
	<path class="st1" d="M139.8,42.4c-1.9-1.4-2.5-3.1-1-5.2c1-1.4,2.3-1.9,3.8-1.4c2.2,0.7,3.1,2.4,2.6,4.7c-0.6,0-1.7,0.3-1.5-0.8
		c0.2-1.7-0.7-2.5-2.1-2.5c-1.6,0.1-1.9,1.5-1.8,3C139.8,40.9,139.7,41.6,139.8,42.4z"/>
	<path class="st1" d="M345.9,256.9c2.3-1.4,4.1-0.4,5.1,1.7c1.2,2.4-0.1,3.9-2.3,4.8c0-0.4,0-0.8,0.1-1.3c1.3-2.8,1.3-4.7-2.7-3.7
		C346,257.9,345.9,257.4,345.9,256.9z"/>
	<path class="st1" d="M145.1,141.8c-0.8-0.1-1.5,0-2.1,0.6c-0.2-0.8-0.6-1.7-0.6-2.5c0-1.1-1.6-2.6,0.5-3.3c0.8-0.3,1.5-0.8,2.5-0.2
		c1.6,1,0.5,2.3,0.6,3.5C146,140.6,145.9,141.3,145.1,141.8z"/>
	<path class="st1" d="M198.1,343.5c1.3-0.5,2.9-1.6,3.9,0.1c1,1.7,0.5,3.1-1.8,3.3c-0.8,0.1-1.6-1-2.3,0.2c-1.2-0.2-1.8-0.9-1.7-2.1
		C196.3,343.9,197.2,343.6,198.1,343.5z"/>
	<path class="st1" d="M201.5,138.3c2.1,0.1,2.9,1.4,2.7,3.2c-0.1,1.4-0.9,2.7-2.4,2.9c-1.9,0.3-3.9,0.8-4.7-1.8
		c0.6-0.1,1.2-0.1,1.8-0.2c3.8,0.7,4,0.3,2.5-4.3L201.5,138.3z"/>
	<path class="st1" d="M349.6,194.7c-0.7-0.2-1.3-0.5-2-0.6c-1.3-0.2-2.3-0.9-2.1-2.2c0.1-1.3,1.3-1.8,2.6-1.7c0.8,0.1,1.4,0,1.7-0.8
		C353,191.2,352.8,193,349.6,194.7z M350.1,191.8c-0.3-0.1-0.5-0.3-0.7-0.3c-0.2,0.1-0.2,0.4-0.3,0.7c0.3,0.1,0.5,0.3,0.7,0.3
		C349.9,192.4,350,192,350.1,191.8z"/>
	<path class="st1" d="M25.8,307.7c-3.5,1.3-4.6,3.5-2.4,6.8c-2.1-0.8-3.8-2.2-2.9-4.6C21.4,307.6,23.2,306.3,25.8,307.7z"/>
	<path class="st1" d="M113.7,53.1c-0.1,0.4-0.3,1.1-0.1,1.3c1,1.2,1.3,2.3,0.1,3.4c-0.8,0.7-1.6,0.8-2.4,0.2c-1.7-1.2-1-2.4-0.1-3.8
		c0.2-0.3,0-0.9-0.1-1.3C112,51.6,112.9,51.7,113.7,53.1z"/>
	<path class="st1" d="M139.8,42.4c0-0.7,0-1.5-0.1-2.2c-0.1-1.5,0.2-2.9,1.8-3c1.4-0.1,2.3,0.7,2.1,2.5c-0.2,1.2,0.9,0.8,1.5,0.8
		C144.2,43.5,141.6,42,139.8,42.4z"/>
	<path class="st1" d="M171.1,59.2l-0.4,0l-0.4,0c-0.1-0.6-0.2-1.1-0.3-1.7c1.1-0.5,1.5-2.1,3-1.9c0.6,0,0.9-0.4,1.1-0.9
		c2.3,0.7,1.9,2.6,1.1,3.9C174.3,59.8,172.8,61.1,171.1,59.2c0.1-0.1,0.2-0.2,0.2-0.4C171.2,59,171.2,59.1,171.1,59.2z"/>
	<path class="st1" d="M231.2,25.1c2.1-4.2-0.6-4.9-3.8-5.3c2.2-2,4.2-1.5,5.7,0.9C234.5,22.9,233.8,24.5,231.2,25.1z"/>
	<path class="st1" d="M292.2,23.4c-0.4,0-1.2,0-1.2,0c-0.1-1.6-0.3-3.3-2.5-3.1c-2.3,0.2-1.3,2.7-2.5,3.7c-1.8-1.4-0.9-2.8,0.1-4.1
		c0.9-1.1,2.3-1.5,3.6-1C291.8,19.6,292.6,21.2,292.2,23.4z"/>
	<path class="st1" d="M345.7,398.3c-2.9-1.2-2.1-3.4-0.8-5c1.7-2,3.8-2,5.5,0.4c-0.3,0.3-0.6,0.6-0.8,0.9c-1.2-1-2.5-1.6-3.7,0
		c-1.3,1.8,0.3,2.5,1.3,3.3C346.7,398.1,346.2,398.2,345.7,398.3z"/>
	<path class="st1" d="M51.9,365c-2.5-1.1-2.7-3.2-1.5-5.1c1.2-1.8,3.1-2.8,5.2-0.8c-0.1,0.6-0.1,1.1-0.2,1.7
		c-3.6-1.9-4.1-0.3-3.3,2.9C52,364,51.9,364.5,51.9,365z"/>
	<path class="st1" d="M259.9,110.5c2.6-4.7,2.6-4.7-3.5-5.5c2.2-2.2,4.6-2.3,6.1,0.4C263.7,107.7,263.1,110,259.9,110.5z"/>
	<path class="st1" d="M171.6,88.6c-4.9,0.4-0.8,3.3-1.3,4.8c-2-0.1-2.8-1.4-2.8-3.3c0-1.7,1-2.8,2.5-3.3c1.3-0.5,2.7-0.8,3,1.2
		C172.5,88.2,172.1,88.4,171.6,88.6C171.6,88.5,171.6,88.6,171.6,88.6z"/>
	<path class="st1" d="M348.7,330.9c1.1-4,1.1-4-3.7-5.3c2.1-2.3,4.2-1.8,5.7,0.5C352.1,328.2,351.5,330.1,348.7,330.9z"/>
	<path class="st1" d="M374,244.1c4.2,2.1,5.3,0,5.1-3.8c2.5,2.1,2.1,4.2-0.3,5.8C376.6,247.5,374.7,247.1,374,244.1z"/>
	<path class="st1" d="M256.4,244c4.5,1.4,4.5,1.4,4.4-3.8c2.2,0.4,2.4,1.9,2,3.6c-0.4,1.6-1.5,2.7-3.1,2.8
		C257.9,246.9,256.5,246.1,256.4,244z"/>
	<path class="st1" d="M373.9,6.4c3.9,1.8,5.5,0.4,5.2-3.7c2.7,2.1,2,4.2-0.4,5.7C376.6,9.8,374.6,9.5,373.9,6.4z"/>
	<path class="st1" d="M350.4,295.2c-0.1,0.3-0.1,0.6,0.1,0.9c-2.2,2.4-4.5,2.3-6.1-0.3c-0.8-1.4-1.6-3.8,1.5-4.2
		c-0.1,2-1.9,5.2,2.7,3.8C349.3,295.3,349.9,295.2,350.4,295.2z"/>
	<path class="st1" d="M85.6,376.5c2.1,1.9,1.3,3.9-0.5,5.2c-2,1.4-4.2,1.2-5.4-1.4c0.3-0.3,0.6-0.7,0.9-1c1,0.9,1.8,2.5,3.5,1.2
		c1.5-1.2,0.9-2.5-0.1-3.7C84.5,376.7,85.1,376.6,85.6,376.5z"/>
	<path class="st1" d="M143.4,104.1c-0.5,1.9-4,0.2-3.7,3.2c0.2,2.5,2.9,1.4,3.6,3.1c-2.5,1-4.5,0.1-5.2-2.3
		c-0.5-1.8-0.1-3.8,2.4-4.2c0.6,0,1.3,0,1.9-0.1C142.8,103.9,143.1,104,143.4,104.1z"/>
	<path class="st1" d="M109.5,190.6c0.4-2.1,1.8-2.4,3.3-2.2c1.5,0.1,2.3,1.3,2.7,2.5c0.3,0.9,1.1,2.7-0.7,2.8
		c-2.3,0.2-0.1-1.3-0.4-2.1C113.3,189,111.2,190.9,109.5,190.6z"/>
	<path class="st1" d="M345.1,88.9c1.3-0.2,2.7-1.6,4,0c0.6,0.7,0.6,1.7,0.1,2.5c-1.2,1.8-2.5,0.7-3.7-0.1c-0.3-0.2-0.8,0.2-1.3,0.3
		C342.6,90,343.1,89.2,345.1,88.9z"/>
	<path class="st1" d="M79.1,72.9c0.3-0.1,0.6-0.2,0.8-0.2c1.5-0.1,2.2-2.7,4.2-1.2c0.8,0.6,1.1,1.5,0.8,2.3c-0.8,2.3-3,1.1-4.5,1.5
		C79.5,74.8,78.3,74.4,79.1,72.9z"/>
	<path class="st1" d="M228.6,159.7c-0.1,0.3-0.1,0.6-0.1,0.8c-2.2,0.1-2.4-1.5-2.3-3c0.1-1.4,1.1-2.5,2.4-2.9c1.5-0.4,3-0.7,3.4,1.5
		c-1.5,0.3-3.5-0.7-4.2,1.7C228.1,158.4,228.3,159,228.6,159.7z"/>
	<path class="st1" d="M79.1,310.3c1,0.3,1.7-0.1,2.4-0.8c1-1.1,2.1-1,3,0.1c0.6,0.7,0.7,1.6,0.1,2.4c-0.8,1.1-1.9,1.4-3,0.4
		c-0.7-0.6-1.4-0.4-2.1-0.3c-0.6-0.4-1.5-0.7-1.7-1.2C77.7,310.2,78.6,310.4,79.1,310.3z"/>
	<path class="st1" d="M173.8,160.2c-0.2-0.7-0.6-1.3-0.7-2c-0.2-1.1-0.4-2.1-1.9-2c-1.2,0-2,0.6-2,1.9c0.1,2-0.8,1.4-1.8,0.7
		c0.1-3,1.4-5.1,4.6-4.3C175.2,155.3,175,157.8,173.8,160.2z"/>
	<path class="st1" d="M346,365c-2.5-1.1-2.7-3.2-1.5-5.1c1.2-1.9,3.2-2.6,5.2-0.8c-0.1,0.5-0.1,1-0.2,1.6c-1.1-0.9-2.2-1.5-3.5-0.2
		c-1.2,1.2-0.3,2.2,0.1,3.2C346.1,364.1,346,364.6,346,365z"/>
	<path class="st1" d="M82.3,178.4c-3.6,0.3-3.4-2.4-2.8-4.4c0.9-2.5,2.8-3.8,5.5-1.8c-0.3,0.3-0.6,0.6-1,0.9c-1.4-0.2-2.8,0-3.3,1.5
		c-0.4,1.2,0.7,1.8,1.5,2.4C82.3,177.5,82.3,178,82.3,178.4z"/>
	<path class="st1" d="M144.2,274.5c1.8,1.6,1.6,3.4,0.1,4.9c-1.3,1.4-2.9,2.1-4.6,0.4c0.1-0.5,0.2-1,0.3-1.5c3,1.2,4.3,0.4,3.3-2.9
		C143.6,275.1,143.9,274.8,144.2,274.5z"/>
	<path class="st1" d="M22.2,341.9c-0.4,3.3,0.6,5.6,4.5,5.2c-1.8,2.1-3.7,1.7-5.3,0C19.5,345.2,20.1,343.4,22.2,341.9z"/>
	<path class="st1" d="M56.3,58.4c-0.5-0.2-1.6,0.5-1.5-0.7c0.2-3.8,0.2-3.8-3.7-2.9c0.3-2.8,2.5-2.4,3.9-1.7
		C57.1,54.1,58.3,56,56.3,58.4z"/>
	<path class="st1" d="M114,19.9c0.3,0.1,0.4,0.1,0.6-0.2c2.2,1.7,1.8,3.7,0.1,5.3c-2,1.8-4,1.6-5.5-0.8c2.1-0.4,6.1,1.7,4.6-3.4
		C113.9,20.5,114,20.2,114,19.9z"/>
	<path class="st1" d="M228.1,260.6c0.6,2.3,2.6,1,3.9,1.4c-0.8,2.6-2.6,2.1-4,1c-1.9-1.5-2.7-3.5-0.4-5.5c0.1,0.9,0.2,1.9,0.4,2.8
		C227.9,260.3,228.1,260.6,228.1,260.6z"/>
	<path class="st1" d="M262.5,142.6c-1.1,2.4-3.2,2.7-5.1,1.5c-2-1.2-2.7-3.2-0.8-5.2c0.6,0.1,1.1,0.2,1.7,0.3
		c-0.9,0.9-1.5,1.9-0.6,3c1,1.3,2.3,1,3.5,0.2C261.6,142.5,262.1,142.6,262.5,142.6z"/>
	<path class="st1" d="M202.5,279.8c-1.9,1.8-3.8,0.8-4.9-0.7c-1.3-1.8-1.1-3.9,1.2-5.2c0.1,0.5,0.1,1,0.2,1.6
		c-1.1,2.6,0.1,3.6,2.6,3.5C201.8,279.2,202.2,279.5,202.5,279.8z"/>
	<path class="st1" d="M202.5,279.8c-0.3-0.3-0.6-0.6-1-0.9c0.8-1,1.4-2.1,0.6-3.2c-0.8-1.1-2-1-3.2-0.3c-0.1-0.5-0.1-1-0.2-1.6
		c2-1.1,3.7-0.7,4.9,1.2C205,277,204.4,278.6,202.5,279.8z"/>
	<path class="st1" d="M169.2,194.7c1.3-0.9,3.6-0.1,3.9-2.6c0.3-2.4-2.6-1.2-3-2.8c1.7,0,3.7-0.9,4.4,1.6c0.4,1.3,0.2,2.6-0.9,3.7
		C172.3,196,170.8,196.4,169.2,194.7z"/>
	<path class="st1" d="M345.4,159.8c4.6,1.2,4.6-1.3,3.4-4.5c2,0,2.6,1.5,2.4,3c-0.1,1.5-1,2.9-2.6,3.2
		C347.2,161.8,345.5,162.2,345.4,159.8z"/>
	<path class="st1" d="M140,278.4c-0.1,0.5-0.2,1-0.3,1.5c-2.3-1.4-2.5-3.4-0.9-5.2c1.5-1.7,3.5-2.1,5.3-0.1c-0.3,0.3-0.6,0.6-0.9,1
		C140.3,274.3,139.4,275.5,140,278.4z"/>
	<path class="st1" d="M21.6,241.4c0.5-2.1,1.9-2.4,3.7-1.9c1.4,0.4,2.2,1.5,2.4,2.9c0.2,1.4,0.1,2.8-2,2.5c1.1-4-1.3-4-4.1-3.6
		L21.6,241.4z"/>
	<path class="st1" d="M256.5,6.4c2.1,0.3,5.5,2.9,4.5-2.5c0,0,1-0.2,1.5-0.3c1,2.6,0.1,4.5-2.4,5.3C258.4,9.4,256.6,9,256.5,6.4z"/>
	<path class="st1" d="M202.5,313.3c-0.4-2.5,0.1-6.1-4.4-3.8c-0.1-1.9,1.2-2.3,2.6-2.2c1.5,0.1,2.5,1,3.2,2.6
		C204.6,311.6,204.2,312.6,202.5,313.3z"/>
	<path class="st1" d="M144.2,70.9c-0.9,1.4-3.2-1.1-3.6,1.3c-1.2,0.9-1,1.7,0,2.6c0.1,0.5,0.2,1.1,0.3,1.6c-2.7-0.6-3.9-2.3-2.4-4.7
		C139.9,69.3,141.9,68.5,144.2,70.9z"/>
	<path class="st1" d="M257.4,211c1.7-0.4,4.6,0.7,3.7-3c-0.1-0.5,0.2-0.9,0.6-0.8c0.4,0,0.9,0.3,1,0.6c0.9,1.8,0.2,3.3-1.3,4.2
		C260,212.8,258,214,257.4,211L257.4,211z"/>
	<path class="st1" d="M198.1,108.6c4.6,2.3,3.8-1.6,4.4-3.9c1.7,0.7,2.3,2,1.5,3.6c-0.6,1.4-1.7,2.6-3.4,2.5
		C199.4,110.8,197.9,110.6,198.1,108.6z"/>
	<path class="st1" d="M256.2,278.8c2.7,0,6.5,1.3,4.7-4c2.2-0.5,2,1.2,2.1,2.4c0,1.6-1,2.8-2.5,3.3
		C258.7,281,257.1,280.7,256.2,278.8z"/>
	<path class="st1" d="M379.1,381.3c0.5-3.5-1.2-4.8-4.5-4.6c1.4-2.8,3.3-2,4.9-0.4C381.1,377.8,381.7,379.8,379.1,381.3z"/>
	<path class="st1" d="M257,41.8c-1.7-1.5-1.9-3.2-0.4-4.8c1.5-1.7,3.4-2,5.2-0.2c-0.1,0.5-0.2,1-0.3,1.6c-2.8-2.3-4-1.3-4.1,2
		C257.2,40.8,257.1,41.3,257,41.8z"/>
	<path class="st1" d="M314.7,6.3c-0.5-2.9,0.8-4.6,3.6-4.5c2.5,0.1,3.8,1.8,3.2,4.5c-0.5,0-1,0-1.5,0c0.3-1.6-0.1-3.1-2-3.1
		c-1.8,0-2.3,1.4-1.9,3.1C315.8,6.3,315.2,6.3,314.7,6.3z"/>
	<path class="st1" d="M226.9,222.8c0.5,0.5,0.8,0.7,0.8,1c0.5,1.9,2.2,3.5,1,5.6c-0.1,0.2-1.1,0.1-1.6-0.1
		C225.7,228.6,225.6,226.5,226.9,222.8z"/>
	<path class="st1" d="M143.9,346.3c-1.4,0.5-2.8,1.3-3.9-0.4c-0.5-0.8-0.5-1.7,0.2-2.5c2.1-2.4,3.1,1.2,4.9,0.9
		C145.9,345.8,145.9,345.8,143.9,346.3z"/>
	<path class="st1" d="M287.6,330.9c-0.1-0.6-0.2-1.2-0.4-1.7c-0.9-1.7-0.4-3.2,1.3-3.4c1.7-0.2,2.7,1,2,2.9
		C290.7,331.1,289.7,331.7,287.6,330.9z"/>
	<path class="st1" d="M259,176.8c-0.5,0-1,0-1.5,0c-0.9-0.1-2.3,0.5-2.6-0.9c-0.2-1,0.8-1.5,1.6-1.8c4.2-1.2,4.6-1,4.3,1.9
		C259.9,175.4,258.9,175.1,259,176.8z"/>
	<path class="st1" d="M81.7,205.9c-1.8,4.3-0.5,5.8,4,4.7c-2,2.2-3.7,3.1-5.3,1.2C79,210,78.2,207.8,81.7,205.9z"/>
	<path class="st1" d="M142.5,379.9c-0.1,0.9-0.2,1.8-0.3,2.7c-1.7,1-2.9-0.1-3.6-1.3c-0.9-1.6,0.9-1.7,1.7-2.3
		c0.8-0.5,1.2-1.2,1.1-2.2c0.7-0.2,1.4-0.1,1.6,0.8C142.3,378.3,142.4,379.1,142.5,379.9z"/>
	<path class="st1" d="M289.6,54.6c2.1-1,2.3,0.3,2.5,1.9c0.2,2.1-1.2,3-2.8,3.4c-1.4,0.4-2.5-0.4-3.3-1.6c0.3-0.3,0.6-0.6,0.9-1
		c1,0.7,2.1,1.5,3.1,0.3C290.8,56.6,290.9,55.5,289.6,54.6z"/>
	<path class="st1" d="M261.4,38.3c0.1-0.5,0.2-1,0.3-1.6c2,1.6,1.7,3.4,0.3,5c-1.5,1.6-3.3,2-5,0.1c0.1-0.5,0.2-1,0.3-1.5
		C259.8,42,261.3,41.6,261.4,38.3z"/>
	<path class="st1" d="M321,177.1c-1.2,1.8-2.9,2.1-4.7,1.2c-1.6-0.8-2.3-2.3-1.7-4.2c0.5,0,1,0,1.5,0c0,3.5,1.2,4.2,3.9,1.8
		C320.5,176.3,320.8,176.7,321,177.1z"/>
	<path class="st1" d="M82.3,178.4c0-0.4,0-0.9,0-1.3c2.8-0.3,3.4-1.6,1.8-3.9c0.3-0.3,0.6-0.6,1-0.9c1.7,0.9,2.1,2.3,1.5,4
		C85.8,178.3,84.2,178.7,82.3,178.4z"/>
	<path class="st1" d="M170,57.6c0.1,0.6,0.2,1.1,0.3,1.7c-3-0.3-3.3-2.4-2.4-4.4c1-2.2,2.9-3.3,5.2-1.1c-0.2,0.2-0.4,0.4-0.6,0.7
		C169.3,54.3,169,54.7,170,57.6z"/>
	<path class="st1" d="M286.8,57.4c-0.3,0.3-0.6,0.6-0.9,1c-1.7-1.6-1.1-3.2,0.2-4.7c1-1.2,2.4-1.3,3.7-0.8c1.3,0.5,1.6,1.3-0.1,1.8
		C286.9,53.6,286.6,55.2,286.8,57.4z"/>
	<path class="st1" d="M291.3,397.3c-0.6,2.9-2.8,2.4-4.3,1.5c-1.9-1.1-3.1-2.9-1.1-5.1c0.5,0.1,0.9,0.1,1.4,0.2
		c-1.2,3.1-0.6,4.5,3,3.4C290.6,397.3,291,397.3,291.3,397.3z"/>
	<path class="st1" d="M349.5,360.7c0.1-0.5,0.1-1,0.2-1.6c1.7,1.3,2.1,2.8,0.9,4.6c-1.1,1.7-2.7,2.2-4.6,1.2
		c0.1-0.4,0.1-0.8,0.2-1.2C348.8,364.4,349.8,363.2,349.5,360.7z"/>
	<path class="st1" d="M198.9,209.9c0.1,0.5,0.4,1.3,0.1,1.6c-0.5,0.5-1.1,0.1-1.4-0.4c-0.9-1.4-1-2.8,0-4.1c1.3-1.8,3-2.2,4.9-0.7
		c0.1,0.5,0.2,1,0.3,1.4c-1.1-0.4-2.2-1.1-3.5-0.3C198.7,208.2,197.5,208.9,198.9,209.9z"/>
	<path class="st1" d="M291.3,397.3c-0.3,0-0.7,0-1,0c0.9-2.8-0.2-3.8-3-3.4c-0.5-0.1-0.9-0.1-1.4-0.2c1.2-2,2.8-2.4,4.8-1.1
		C292.8,394.1,292.1,395.7,291.3,397.3z"/>
	<path class="st1" d="M85.6,376.5c-0.5,0.1-1.1,0.1-1.6,0.2c-1.9-0.2-3.2,0.4-3.4,2.5c-0.3,0.3-0.6,0.7-0.9,1
		c-1-1.9-0.4-3.5,1.3-4.6C82.7,374.6,84.3,374.7,85.6,376.5z"/>
	<path class="st1" d="M286.9,224.2c1.4-0.1,3-0.8,3.7,1.1c0.2,0.6,0,1.6-0.4,2c-1.5,1.4-2.9,0.1-4.3-0.5
		C285.9,225.8,285.7,224.8,286.9,224.2z"/>
	<path class="st1" d="M348.7,262.1c0,0.4,0,0.8-0.1,1.3c-2.1,0.9-3.5-0.2-4.3-1.8c-0.8-1.8-0.7-3.7,1.5-4.7c0,0.5,0.1,1,0.1,1.6
		C344.4,261.4,346.4,261.9,348.7,262.1z"/>
	<path class="st1" d="M22.3,378.9c-0.1-0.2-0.2-0.4-0.2-0.6c0-0.1,0.1-0.2,0.2-0.3c0-0.5,0-1-0.1-1.4c0,0,0,0,0,0c1.2,0,2.5,0,3.7,0
		c0,0,0,0,0,0c0,1.5,0,3.1,0,4.6c0,0,0,0,0,0C24.8,380.3,22.3,381.5,22.3,378.9z"/>
	<path class="st1" d="M262.5,142.6c-0.4-0.1-0.9-0.1-1.3-0.2c0.9-2.7-0.5-3.5-2.9-3.3c-0.6-0.1-1.1-0.2-1.7-0.3
		c1.3-1.7,2.9-2.1,4.6-0.9C262.9,139.2,263.5,140.7,262.5,142.6z"/>
	<path class="st1" d="M55.4,360.7c0.1-0.6,0.1-1.1,0.2-1.7c1.8,1.1,2.2,2.7,1.1,4.5c-1.1,1.8-2.7,2.6-4.8,1.5c0.1-0.5,0.2-1,0.2-1.4
		C55,364.6,55.6,363.1,55.4,360.7z"/>
	<path class="st1" d="M140.7,212.4c-3.9-2.8-3.9-4,0-6.8c0,0.5,0,1,0,1.5c-1.2,1.3-1.1,2.5,0,3.8
		C140.6,211.4,140.6,211.9,140.7,212.4z"/>
	<path class="st1" d="M112.2,399.2c0.3-1.8-3.5-2.6-1.3-4.8c0.8-0.8,1.9-0.9,2.7,0c2.3,2.2-1.4,3.1-1.1,4.8
		C112.6,399.2,112.2,399.2,112.2,399.2z"/>
	<path class="st1" d="M201.8,39.5C201.8,39.5,201.8,39.5,201.8,39.5c-0.1-1.6-1.3-1.6-2.4-1.7c-0.2-0.5-0.3-1.1-0.5-1.6
		c1.7-2.2,3.4-1.1,4.6,0.3C205,38.5,202.6,38.7,201.8,39.5z"/>
	<path class="st1" d="M350.5,126.3c-0.6-1.2-1.3-0.5-2.2-0.2c-1.6,0.5-2.6-0.3-2.8-1.9c-0.1-1.2,0.8-1.9,2-2c1.5-0.1,2,0.9,2,2.3
		C349.5,125.2,348.8,126.4,350.5,126.3C350.4,126.3,350.5,126.3,350.5,126.3z"/>
	<path class="st1" d="M55.2,398.8c-3.9,1.4-5.4-0.3-5.2-4.1c0.5,0,0.9,0,1.4,0c-0.3,2.2,0.8,3,2.8,3.2
		C54.6,398.2,54.9,398.5,55.2,398.8z"/>
	<path class="st1" d="M85,244.9c0,0.3,0.1,0.6,0.1,0.9c-4.3,1.5-6.1,0-5.5-4.5c0.3,0,0.6,0,0.9,0C80.4,244.5,82.2,245.3,85,244.9z"
		/>
	<path class="st1" d="M286.7,87.3c-0.5,3,0.4,5.2,3.6,6c-1.8,0.1-3.8,0.7-4.9-1.6C284.5,89.8,284.9,88.4,286.7,87.3z"/>
	<path class="st1" d="M51.4,394.7c-0.5,0-0.9,0-1.4,0c1.4-2.8,4-3.2,6.3-1c-0.6,0.1-1.1,0.3-1.2,1C53.9,394.7,52.7,394.7,51.4,394.7
		z"/>
	<path class="st1" d="M234,225.6c-0.1,1,0,2.1-1.3,1.9c-1-0.1-2.2-0.6-2-1.9c0.1-0.9,0.3-2.2,1.8-2.1
		C233.9,223.6,233.9,224.7,234,225.6z"/>
	<path class="st1" d="M198.9,142.4c-0.6,0.1-1.2,0.1-1.8,0.2c-1.4-1.3-1-2.6-0.1-3.9c0.5-0.6,1.4-0.9,2-0.4
		C200.4,139.7,198.5,141.1,198.9,142.4z"/>
	<path class="st1" d="M320.4,240.4c-2.7,0.3-5,0.9-4.1,4.5c-1.8-1.2-2.4-2.3-1.5-3.6C316.4,239.2,318.2,238.5,320.4,240.4z"/>
	<path class="st1" d="M21.6,241.4c0,0,0.1-0.1,0.1-0.1c0.8,1.4,0.1,4.3,3.3,3.6c0.7,1.7-0.3,2.3-1.6,1.7
		C21.3,245.5,18.7,244.3,21.6,241.4z"/>
	<path class="st1" d="M289.8,121.7c0.1,0.4,0.2,0.8,0.4,1.3c-0.9,0.7-0.6,1.8-0.7,2.7c-2.7,0.7-2.9-0.9-2.6-2.9
		C286.4,118.8,288.6,121.5,289.8,121.7z"/>
	<path class="st1" d="M314.7,6.3c0.5,0,1,0,1.5,0c1.3,1.2,2.6,1.2,3.9,0c0.5,0,1,0,1.5,0C318.8,10.2,317.6,10.2,314.7,6.3z"/>
	<path class="st1" d="M286.7,190.1c-1.2,2.4,2,3.3,1.8,5.4c-2,0.3-3.1-1-3.4-2.6C285,192,284.4,190,286.7,190.1z"/>
	<path class="st1" d="M25,244.9c-3.1,0.7-2.4-2.2-3.3-3.6c2.8-0.4,5.2-0.4,4.1,3.6c0,0-0.4,0-0.4,0L25,244.9z"/>
	<path class="st1" d="M140.6,239.7c0.1,0.6,0.2,1.1,0.3,1.7c-1.6,0.7-1.1,1.9-0.7,3.1c-0.3,0.3-0.6,0.7-0.9,1
		C136.7,242.8,137.7,241,140.6,239.7z"/>
	<path class="st1" d="M200.6,240.8c0.4-0.4,1.2-0.5,1-1.3c1.8,0.2,3,1,3.2,3.3C203.1,242.5,201.4,242.6,200.6,240.8z"/>
	<path class="st1" d="M199.9,382.3c0-0.6-0.1-1.3-0.1-1.9c0.1,0,0.3-0.1,0.4-0.1c1.3,0.1,3.3-2,3.6,0.1
		C204.1,382,201.7,382.5,199.9,382.3z"/>
	<path class="st1" d="M140.6,207.1c0-0.5,0-1,0-1.5c4.4,0.2,5.1,1.3,3.7,5.4c-0.3-0.3-0.6-0.6-0.8-0.8
		C144.3,207.4,142.9,206.9,140.6,207.1z"/>
	<path class="st1" d="M228.3,125.2c-0.5-0.1-1-0.1-1.4-0.2c-0.1-1.8-0.7-3.9,2-4.5C230.1,122.3,228.2,123.6,228.3,125.2z"/>
	<path class="st1" d="M316.3,174.1c-0.5,0-1,0-1.5,0c1.5-2.9,3.4-4,6.1-1.4c-0.4,0.2-0.7,0.5-1.1,0.7
		C318.4,173,317.2,173,316.3,174.1z"/>
	<path class="st1" d="M54.6,121.2c-0.2,1.7,3.4,5-1.9,4.5c-0.1-1-0.2-2-0.2-3.1c0,0,0,0,0,0C53.2,122.1,53.9,121.7,54.6,121.2z"/>
	<path class="st1" d="M55.2,394.7c0-0.8,0.5-1,1.2-1c1.8,2.2,0.9,3.8-1.1,5.1c-0.3-0.3-0.7-0.6-1-0.8
		C55.2,397.1,55.9,396.1,55.2,394.7z"/>
	<path class="st1" d="M25.8,5.5c0.2,1.2,1,1.1,1.9,1c0,1.5-0.8,2.4-2.2,2.9C24.6,7.9,24.6,6.6,25.8,5.5z"/>
	<path class="st1" d="M349.5,394.7c0.3-0.3,0.6-0.6,0.8-0.9c2,2.3,0.6,3.8-1.3,5.2c-0.2-0.3-0.5-0.7-0.7-1
		C349.4,397.1,349.7,396,349.5,394.7z"/>
	<path class="st1" d="M23.1,210.8c0,0.3,0,0.6,0,0.9c-2.1,1.1-2.7-0.4-3.4-1.9C21.3,209,22.3,209.8,23.1,210.8z"/>
	<path class="st1" d="M25.9,381.3c0-1.5,0-3.1,0-4.6C28.5,377.9,28.5,379.3,25.9,381.3z"/>
	<path class="st1" d="M22.3,378.9c0.1,2.5,2.5,1.4,3.6,2.3c-2.5,1.8-3,1.7-5.2-1.4c0.2-0.5,0.4-1.1,0.6-1.6
		C21.8,378.1,22.2,378.3,22.3,378.9z"/>
	<path class="st1" d="M140.7,212.4c0-0.5,0-1,0-1.5c1.1,0.3,2.1,0.2,2.9-0.7c0.3,0.3,0.6,0.6,0.8,0.8
		C143.6,212.6,142.3,213,140.7,212.4z"/>
	<path class="st1" d="M25.9,376.7c-1.2,0-2.5,0-3.7,0c-0.1-1.7,1.2-1.6,2.2-1.6C25.1,375.1,26.4,375.2,25.9,376.7z"/>
	<path class="st1" d="M53.6,193.8c-1.6,0.3-2.2-0.7-2.1-2c0.1-1.1,0.8-1.8,2.1-1.5C53.6,191.4,53.6,192.6,53.6,193.8z"/>
	<path class="st1" d="M290.6,189.3c-1.1,1.3-2.5,0.8-3.9,0.9C287.4,187.1,289,188.1,290.6,189.3z"/>
	<path class="st1" d="M286.7,295.4c0.1-0.3,0.1-0.6,0.2-0.9c0.7,2,1.6,2.7,3.2,0.8l0.4,0.2c0,0-0.2,0.4-0.2,0.4
		c0.2,1.5-0.5,2.1-1.9,1.9C286.9,297.7,286.7,296.6,286.7,295.4z"/>
	<path class="st1" d="M321,177.1c-0.3-0.4-0.6-0.8-0.9-1.2c-0.2-0.8-0.3-1.6-0.5-2.4c0.4-0.2,0.7-0.5,1.1-0.7
		C322.1,174.1,322.2,175.5,321,177.1z"/>
	<path class="st1" d="M142.4,245c0.1,0.5,0.4,0.8,1,0.8c-1.5,1.8-2.9,1.1-4.2-0.3c0.3-0.3,0.6-0.7,0.9-1
		C140.9,244.6,141.6,244.8,142.4,245z"/>
	<path class="st1" d="M227.8,291.1c1.5-1,3-1.2,4.4,0.3c-0.3,0.3-0.5,0.6-0.8,0.8c-0.8-0.6-1.7-0.6-2.6-0.4
		C228.4,291.6,228.1,291.3,227.8,291.1z"/>
	<path class="st1" d="M345.7,398.3c0.5-0.1,1-0.2,1.5-0.3c0.4,0,0.8-0.1,1.2-0.1c0.2,0.3,0.5,0.7,0.7,1
		C347.9,399.3,346.5,400.2,345.7,398.3z"/>
	<path class="st1" d="M346.2,227.2c-1-0.7-1.2-1.5,0-2.2C347.7,225.7,347.8,226.4,346.2,227.2z"/>
	<path class="st1" d="M55.7,194.7c-0.2-0.6-0.5-1-1.2-1.1c0.7-0.8,1.6-1.1,2.2-0.2C57.3,194.2,56.5,194.6,55.7,194.7z"/>
	<path class="st1" d="M54.5,190.4c0.4-0.4,0.7-0.7,1.1-1.1c0.8,0.1,1.7,0.4,1.1,1.3C56.2,191.5,55.2,191.2,54.5,190.4z"/>
	<path class="st1" d="M316.2,278.9c1,0.5,2.1,0.9,3.3,1.5C317.6,281.2,316.5,280.9,316.2,278.9C316.3,278.8,316.2,278.9,316.2,278.9
		z"/>
	<path class="st1" d="M198.9,209.9c-1.4-1-0.2-1.7,0.4-2.4C199.6,208.4,199.7,209.2,198.9,209.9z"/>
	<path class="st1" d="M142.5,103.8c-0.6,0-1.3,0-1.9,0.1c0.1-0.6,0.2-1.2,0.9-1.2C142.2,102.6,142.4,103.2,142.5,103.8z"/>
	<path class="st1" d="M170.2,93.3c0.8,0.6,1.6,0.2,2.5,0C171.8,94,171,94.3,170.2,93.3z"/>
	<path class="st1" d="M292.1,295.1c0.1-0.6,0.2-1.2,0.2-1.8c0.4,0.3,1.1,0.5,1.2,0.8C293.6,295,292.8,295,292.1,295.1z"/>
	<path class="st1" d="M21.2,138.4c0.4,0.2,0.6,0.3,0.8,0.5c-0.2,0.3-0.3,0.6-0.6,0.8c-0.1,0.1-0.6-0.3-0.6-0.3
		C20.8,139.1,21,138.8,21.2,138.4z"/>
	<path class="st1" d="M202.7,207.8c-0.1-0.5-0.2-1-0.3-1.4c0.7,0,1.5,0,1.5,1C203.9,208,203.3,208.2,202.7,207.8z"/>
	<path class="st1" d="M201.6,211.7c0.1-0.7-0.1-1.5,0.9-1.5c0.2,0,0.5,0.3,0.5,0.5C203,211.7,202.2,211.7,201.6,211.7L201.6,211.7z"
		/>
	<path class="st1" d="M51.1,294.9c0.6,0.2,1.4,0.2,1.5,1.1c0,0.1-0.1,0.3-0.2,0.3c-0.8,0-1.2-0.5-1.6-1.1
		C50.9,295.2,51,295.1,51.1,294.9z"/>
	<polygon class="st1" points="24.7,280.2 25.2,280.1 25.1,280.4 	"/>
	<path class="st1" d="M201.6,211.7c-0.1,0.9-0.6,1.1-1.4,0.8c-0.1,0-0.1-0.4-0.1-0.6C200.6,211.9,201.1,211.8,201.6,211.7
		C201.6,211.7,201.6,211.7,201.6,211.7z"/>
	<path class="st1" d="M21.4,7.1c0.2-0.3,0.4-0.3,0.7-0.3c0,0.5,0.4,1-0.3,1.3C21.6,7.8,21.5,7.5,21.4,7.1z"/>
	<path class="st1" d="M203.7,41.3c-0.3-0.3-0.6-0.6-0.9-1c0.3-0.1,0.8-0.5,1-0.4C204.4,40.4,204.1,40.9,203.7,41.3z"/>
	<path class="st1" d="M141.4,142.9c-0.3-0.1-0.6-0.2-0.8-0.3c0.2-0.3,0.4-0.6,0.6-0.9C141.3,142.1,141.4,142.5,141.4,142.9z"/>
	<path class="st1" d="M174,54.8c-0.2,0.5-0.4,0.9-1.1,0.9c-0.2-0.4-0.4-0.8-0.6-1.2c0.2-0.2,0.4-0.4,0.6-0.7
		C173.4,54.1,173.7,54.4,174,54.8z"/>
	<path class="st1" d="M227.1,291.8c0.2-0.2,0.4-0.5,0.7-0.7c0.3,0.2,0.6,0.5,1,0.7c-0.3,0.3-0.6,0.6-0.9,0.8
		C227.6,292.4,227.4,292.1,227.1,291.8z"/>
	<path class="st1" d="M114.4,291.1c0.3,0.1,0.5,0.3,0.6,0.6c-0.2,0.3-0.5,0.6-0.7,1c-0.3-0.3-0.6-0.5-0.9-0.8
		C113.7,291.6,114.1,291.4,114.4,291.1z"/>
	<path class="st1" d="M350.6,225.8c0.2,0.1,0.5,0.1,0.7,0.1c-0.1,0.2-0.2,0.4-0.3,0.7C350.9,226.3,350.7,226.1,350.6,225.8z"/>
	<path class="st1" d="M22.2,376.7c0,0.5,0,1,0.1,1.4c-0.7,0.2-1.3,0-1.3-0.7C20.9,376.8,21.5,376.5,22.2,376.7z"/>
	<path class="st1" d="M79.3,307.6C79.3,307.6,79.3,307.7,79.3,307.6c-0.2,0.2-0.4,0.3-0.6,0.5C78.9,308,79.1,307.8,79.3,307.6z"/>
	<path class="st1" d="M20.6,379.8c-0.1-0.7-0.9-1.6,0.6-1.6C21,378.7,20.8,379.3,20.6,379.8z"/>
	<path class="st1" d="M201.4,138.2l0.1-0.1c0,0,0,0.2,0,0.2C201.5,138.3,201.4,138.2,201.4,138.2z"/>
	<path class="st1" d="M316.3,244.9c0.3,0,0.6,0,1-0.1c-0.2,0.3-0.4,0.9-0.6,0.9C316.2,245.8,316.1,245.4,316.3,244.9z"/>
	<path class="st1" d="M374.6,376.6c0.4,1.4-0.6,1-1.3,1C373.7,377.3,373.8,376.5,374.6,376.6z"/>
	<path class="st1" d="M227.2,54.1c0.1-0.3,0.3-0.5,0.6-0.6c0.3,0.2,0.6,0.5,1,0.7c-0.3,0.3-0.6,0.6-0.9,0.8
		C227.6,54.7,227.4,54.4,227.2,54.1z"/>
	<path class="st1" d="M138.6,376.7c0.2,0.2,0.4,0.4,0.6,0.7c-0.3,0-0.6,0-0.8,0.1C138.5,377.2,138.5,377,138.6,376.7z"/>
	<path class="st1" d="M203.2,377.7l0.2,0C203.5,377.7,203.3,377.8,203.2,377.7C203.3,377.8,203.2,377.7,203.2,377.7z"/>
	<path class="st1" d="M262.1,346.9c-0.2,0.2-0.4,0.4-0.6,0.6c-0.3-0.2-0.6-0.5-1-0.7c0.3-0.3,0.6-0.6,0.9-0.9
		C261.7,346.3,261.9,346.6,262.1,346.9z"/>
	<path class="st1" d="M53.3,257.9c1.3,0.2,2.2,0.7,2.2,2c0,1.2-0.6,1.9-1.8,2c-1.3,0.1-1.9-0.7-2-1.9
		C51.5,258.7,52.4,258.3,53.3,257.9z"/>
	<path class="st1" d="M202.4,174.7c0.1,1.6-0.7,2.2-1.9,2.3c-1.2,0.1-2-0.7-2-1.8c0-1,0.6-2,1.9-2
		C201.7,173.1,202.3,173.8,202.4,174.7z"/>
	<path class="st1" d="M376.8,278.9c-1.1-0.2-2.1-0.7-2-2c0.1-1.3,1-2.1,2.4-1.9c1.1,0.2,2,0.9,1.7,2.1
		C378.8,278.3,378,278.9,376.8,278.9z"/>
	<path class="st1" d="M82.8,41.3c-1.3-0.2-2.1-1.1-2-2.3c0.1-1,1-1.9,2.1-1.8c1.3,0.1,2.1,0.9,2,2.3C84.8,40.7,84,41.2,82.8,41.3z"
		/>
	<path class="st1" d="M55.4,22c0,1.5-0.6,2.2-1.8,2.3c-1.3,0.1-1.9-0.8-2-1.9c-0.1-1.2,0.6-2,1.8-2C54.5,20.4,55.5,20.8,55.4,22z"/>
	<path class="st1" d="M349.5,55.6c0.1,1.7-0.5,2.5-1.6,2.7c-1.4,0.2-2.2-0.7-2.4-1.9c-0.2-1.2,0.7-2,1.7-2.1
		C348.5,54,349.3,54.7,349.5,55.6z"/>
	<path class="st1" d="M377.5,41.3c-1.7-0.1-2.6-0.8-2.7-2.1c-0.1-1.2,0.9-1.9,1.9-2.1c1.4-0.2,2.1,0.9,2.3,2.1
		C379.2,40.5,378.1,40.9,377.5,41.3z"/>
	<path class="st1" d="M379.1,140.9c-0.3,1.5-1.2,2.3-2.2,2.2c-1.1-0.1-2.4-0.7-2.1-2.3c0.2-1.1,1-1.8,2.3-1.6
		C378.3,139.3,378.8,140.1,379.1,140.9z"/>
	<path class="st1" d="M143.7,5.4c-0.3,1.1-0.9,1.9-2.2,1.8c-1.2-0.2-1.8-0.9-1.8-2.1c0.1-1.3,1-1.8,2.1-1.7
		C143,3.5,143.7,4.2,143.7,5.4z"/>
	<path class="st1" d="M173.1,225.9c-0.2,1.3-0.7,2-2,2c-1.2,0-1.8-0.8-1.8-2c0-1.3,0.7-1.9,1.9-1.8
		C172.4,224.1,173,224.9,173.1,225.9z"/>
	<path class="st1" d="M114.4,362.1c-0.9,0.4,0.4,2.4-1.5,2c-1.4-0.3-2.6-0.9-2.6-2.5c0-1.2,0.9-1.9,2.1-1.8
		C113.6,359.9,114.5,360.6,114.4,362.1z"/>
	<path class="st1" d="M377.1,313c-1.3,0-2.2-0.8-2.3-2.1c-0.1-1.1,0.9-2,1.9-2.1c1.4-0.1,2.2,0.8,2.3,2.1
		C379.1,312.1,378.3,312.8,377.1,313z"/>
	<path class="st1" d="M259.2,308.7c1.3,0.2,2.2,0.9,2.2,2.2c0.1,1.2-0.9,1.9-1.9,2c-1.1,0.1-2-0.5-2.2-1.6
		C257,309.8,258.1,309.2,259.2,308.7z"/>
	<path class="st1" d="M171.3,122c1.3,0.3,1.7,1.2,1.7,2.3c0,1.2-0.9,2-2,1.9c-1.1-0.1-1.8-1-1.7-2.2
		C169.5,122.7,170.2,122.1,171.3,122z"/>
	<path class="st1" d="M229.9,330.1c-1.3-0.2-2.2-1-2.2-2.3c0-1.3,1.1-2.1,2.3-2c1,0.1,1.9,0.8,2,2
		C232.1,329.1,231.1,329.7,229.9,330.1z"/>
	<path class="st1" d="M85,140.7c0,1.7-0.8,2.4-1.8,2.5c-1.3,0.1-2.4-0.8-2.4-2c0-1.2,0.9-2.1,2.3-2C84.3,139.2,84.8,140.1,85,140.7z
		"/>
	<path class="st1" d="M84.9,106.6c0.1,1.8-0.7,2.6-2,2.7c-1.1,0-2.1-0.7-2.2-1.9c-0.1-1.4,0.8-2.2,2.1-2.3
		C84.1,105,84.7,105.8,84.9,106.6z"/>
	<path class="st1" d="M114.5,123.7c0.1,1.6-0.8,2.2-1.8,2.5c-1.4,0.3-2.3-0.5-2.5-1.8c-0.2-1.2,0.5-2,1.7-2.2
		C113.4,121.8,114,122.9,114.5,123.7z"/>
	<path class="st1" d="M379.1,107c-0.2,1.4-1.1,2.4-2.3,2.3c-1.1-0.1-2.2-0.9-2-2.3c0.1-1.1,0.9-1.9,2-1.9
		C378.2,105,378.9,105.9,379.1,107z"/>
	<path class="st1" d="M261.6,378.5c-0.2,1.3-0.9,2.3-2.3,2.3c-1.1,0-2-0.6-2.1-1.9c-0.1-1.2,0.5-2,1.7-2.2
		C260.3,376.6,261.2,377.3,261.6,378.5z"/>
	<path class="st1" d="M376.6,75.3c-1.1-0.3-1.9-0.9-1.9-2.1c0.1-1.3,1-2.2,2.4-2.1c1.2,0.1,2,0.9,1.9,2
		C378.9,74.5,378.1,75.3,376.6,75.3z"/>
	<path class="st1" d="M112.1,325.6c1.4,0.4,2.4,1.1,2.3,2.5c-0.1,1.1-1,1.9-2.1,1.9c-1.3,0-2.2-0.9-2.1-2.3
		C110.3,326.4,111.4,326.1,112.1,325.6z"/>
	<path class="st1" d="M173.1,259.8c-0.1,1.1-0.5,2-1.8,2.1c-1.1,0.1-2-0.2-2.1-1.6c-0.1-1.4,0.5-2.3,1.9-2.4
		C172.3,257.9,173,258.7,173.1,259.8z"/>
	<path class="st1" d="M229.9,88c1.1,0.4,2.3,0.9,2.1,2.4c-0.1,1.2-1.1,2-2.1,1.9c-1.2-0.1-2.3-0.9-2.1-2.4
		C227.9,88.8,228.7,88.2,229.9,88z"/>
	<path class="st1" d="M141.8,308.8c1.1,0.3,1.9,1.1,1.8,2.2c-0.1,1.3-1,2.2-2.4,1.9c-1.1-0.2-1.7-1-1.5-2.2
		C140,309.4,140.8,309,141.8,308.8z"/>
	<path class="st1" d="M202.6,7.3c-0.9,0-1.8,0-2.6-0.1c-1.2-0.2-1.7-1.2-1.5-2.3c0.2-0.6,0.9-1.2,1.5-1.4c1.1-0.4,2.1,0,2.4,1.3
		C202.6,5.5,202.5,6.4,202.6,7.3C202.5,7.3,202.6,7.3,202.6,7.3z"/>
	<path class="st1" d="M53.6,224.1c1.3,0.2,2,0.8,1.9,2.1c-0.1,1.3-0.8,1.8-2,1.7c-1.3-0.1-1.8-0.9-1.8-2.1
		C51.7,224.6,52.5,224.1,53.6,224.1z"/>
	<path class="st1" d="M232,361.6c-0.1,1.5-0.9,2.3-2.2,2.4c-1.1,0.1-2-0.8-2.1-1.9c-0.1-1.4,0.8-2.2,2.2-2.3
		C231,359.7,231.9,360.4,232,361.6z"/>
	<path class="st1" d="M376.9,173.1c1.1,0.2,2,0.7,2.1,1.9c0,1.5-1.1,2-2.3,2.1c-1.2,0-1.8-1-1.8-2.1
		C374.8,173.7,375.9,173.4,376.9,173.1z"/>
	<path class="st1" d="M261.6,73.4c-0.4,1.2-1.1,2.1-2.5,1.9c-1.1-0.1-1.9-0.8-1.8-2c0-1.3,0.8-2.2,2.2-2.2
		C260.8,71.1,261.3,72.2,261.6,73.4z"/>
	<path class="st1" d="M374.7,344.7c0.3-1.3,1.1-2.1,2.4-2c1.1,0.1,1.9,0.9,1.9,2c0,1.3-0.9,2.3-2.2,2.3
		C375.6,347,374.9,346.1,374.7,344.7z"/>
	<path class="st1" d="M81.4,347.2c-0.3-0.8-0.8-1.6-0.7-2.4c0.1-1.1,0.9-1.9,2-2c1-0.2,1.7,0.4,2.1,1.3c0.4,1.1,0.2,2.1-0.9,2.7
		C83.1,347,82.2,347,81.4,347.2C81.4,347.2,81.4,347.2,81.4,347.2z"/>
	<path class="st1" d="M114.6,90c-0.2,1.3-1,2.3-2.2,2.3c-1.1,0.1-1.9-0.8-2.1-1.9c-0.2-1.2,0.7-2,1.7-2.2
		C113.3,87.8,114,88.9,114.6,90z"/>
	<path class="st1" d="M139.7,173.1c0.7,0,1.4,0,2.1,0c1.2,0.1,1.9,0.8,2,1.9c0,1.1-0.7,1.9-1.9,1.9c-1.1,0-2-0.5-2.1-1.7
		C139.7,174.5,139.7,173.8,139.7,173.1C139.7,173.1,139.7,173.1,139.7,173.1z"/>
	<path class="st1" d="M113.6,258.3c0.6,1.2,1.4,2.4-0.2,3.3c-0.8,0.5-1.7,0.4-2.5-0.3c-0.7-0.6-1.1-1.5-0.4-2.3
		c0.8-1,1.8-2.2,3.2-0.6C113.7,258.5,113.6,258.3,113.6,258.3z"/>
	<path class="st1" d="M286.8,262c0-0.7-0.1-1.5,0-2.2c0.1-1.2,0.9-1.9,2-1.9c1.2,0,1.9,0.9,2,2c0,1.1-0.6,2-1.8,2.1
		C288.2,262,287.4,261.9,286.8,262C286.7,261.9,286.8,262,286.8,262z"/>
	<path class="st1" d="M169.3,393.7c0.7,0,1.4,0,2.2,0.1c1.3,0.1,1.7,1,1.7,2.1c-0.1,1.3-0.9,1.9-2,1.9c-1.2,0-1.8-0.8-1.8-2
		C169.2,395.1,169.3,394.4,169.3,393.7C169.3,393.7,169.3,393.7,169.3,393.7z"/>
	<path class="st1" d="M22.2,173.1c0.9,0,1.7-0.1,2.6,0.1c1.2,0.3,1.6,1.3,1.4,2.4c-0.2,1-1,1.4-1.9,1.5c-1,0.1-1.7-0.4-1.9-1.4
		C22.1,174.8,22.2,174,22.2,173.1C22.2,173.1,22.2,173.1,22.2,173.1z"/>
	<path class="st1" d="M227.8,55c0.3-0.3,0.6-0.6,0.9-0.8c2-0.4,3.3,0.3,3.2,2.4c-0.1,1.1-1,1.9-2.2,1.7
		C227.9,58,227.4,56.7,227.8,55z"/>
	<path class="st1" d="M261.4,346c-0.3,0.3-0.6,0.6-0.9,0.9c-1.6,0.3-3.1,0.1-3.3-1.9c-0.1-1.2,0.6-2.1,1.7-2.2
		C261.1,342.7,261.8,344,261.4,346z"/>
	<path class="st1" d="M169.3,24.3c0-0.7-0.1-1.4,0-2.2c0-1.2,0.7-2,1.9-2c1.2,0,1.9,0.8,2,1.9c0.1,1.2-0.4,2-1.7,2.1
		C170.7,24.4,170,24.3,169.3,24.3C169.3,24.3,169.3,24.3,169.3,24.3z"/>
	<path class="st1" d="M113.4,291.9c0.3,0.3,0.6,0.5,0.9,0.8c0.5,2-0.1,3.2-2.3,3.2c-0.9,0-1.8-0.7-1.8-1.6
		C110.2,292.2,111.5,291.6,113.4,291.9z"/>
	<path class="st1" d="M55.5,156c0,0.7,0.1,1.5,0,2.2c-0.1,1.3-0.9,1.9-2,2c-1.2,0.1-1.9-0.8-2-2c-0.1-1.2,0.5-2,1.8-2.1
		C54,156,54.8,156.1,55.5,156C55.5,156.1,55.5,156,55.5,156z"/>
	<path class="st1" d="M200.8,40c-0.1-0.2-0.2-0.4-0.3-0.5c0.2,0.1,0.3,0.2,0.5,0.3C201.1,39.7,200.8,40,200.8,40z"/>
	<path class="st1" d="M286.7,156.1c0.7,0,1.5-0.1,2.2,0c1.2,0.1,1.9,1,1.8,2.1c-0.1,1.2-0.8,2-2,2c-1.1,0-1.9-0.7-2-1.9
		C286.6,157.5,286.7,156.8,286.7,156.1C286.7,156.1,286.7,156.1,286.7,156.1z"/>
	<path class="st1" d="M227.9,292.7c0.3-0.3,0.6-0.6,0.9-0.8c0.9-0.2,1.8-0.2,2.6,0.4c1.2,1.8,1,3.4-1.2,3.7
		C228,296.2,227.4,294.6,227.9,292.7z"/>
	<path class="st1" d="M348.7,262.1c-2.3-0.2-4.2-0.7-2.7-3.7C350,257.4,350,259.3,348.7,262.1z"/>
	<path class="st1" d="M348.4,397.9c-0.4,0-0.8,0.1-1.2,0.1c-1.1-0.9-2.7-1.6-1.3-3.3c1.2-1.6,2.4-1,3.7,0
		C349.7,396,349.4,397.1,348.4,397.9z"/>
	<path class="st1" d="M80.6,379.3c0.2-2.1,1.5-2.7,3.4-2.5c1,1.2,1.6,2.5,0.1,3.7C82.4,381.8,81.6,380.2,80.6,379.3z"/>
	<path class="st1" d="M349.5,360.7c0.3,2.5-0.7,3.7-3.4,3.1c-0.4-1.1-1.3-2-0.1-3.2C347.3,359.2,348.4,359.8,349.5,360.7z"/>
	<path class="st1" d="M140,278.4c-0.6-2.9,0.3-4,3.3-2.9C144.3,278.8,143,279.6,140,278.4z"/>
	<path class="st1" d="M258.3,139.2c2.4-0.2,3.8,0.6,2.9,3.3c-1.2,0.7-2.5,1-3.5-0.2C256.8,141.1,257.4,140,258.3,139.2z"/>
	<path class="st1" d="M198.9,275.4c1.1-0.7,2.4-0.8,3.2,0.3c0.8,1.1,0.2,2.3-0.6,3.2C199,279,197.8,278.1,198.9,275.4z"/>
	<path class="st1" d="M261.4,38.3c-0.1,3.3-1.6,3.7-4.1,2C257.4,37.1,258.6,36.1,261.4,38.3z"/>
	<path class="st1" d="M320.1,6.3c-1.3,1.2-2.6,1.2-3.9,0c-0.3-1.7,0.1-3.1,1.9-3.1C320,3.2,320.5,4.7,320.1,6.3z"/>
	<path class="st1" d="M319.7,173.4c0.2,0.8,0.3,1.6,0.5,2.4c-2.7,2.4-3.9,1.7-3.9-1.8C317.2,173,318.4,173,319.7,173.4z"/>
	<path class="st1" d="M287.3,393.9c2.8-0.5,3.8,0.6,3,3.4C286.7,398.5,286.1,397,287.3,393.9z"/>
	<path class="st1" d="M143.5,210.2c-0.8,0.9-1.8,1-2.9,0.7c-1.1-1.3-1.2-2.5,0-3.8C142.9,206.9,144.3,207.4,143.5,210.2z"/>
	<path class="st1" d="M56.9,92.2c-0.4,2.2-1.8,3.7-3.8,3.7c-2.3,0-3.9-1.5-3.8-3.9c0.1-2.1,1.7-3.6,3.8-3.4
		C55.3,88.7,56.6,90.1,56.9,92.2z M55,91.6c-0.2-0.8-0.8-1.6-2-1.5c-1.3,0.1-2.2,0.9-2.1,2.3c0.1,1.1,1,1.9,2.2,1.9
		C54.3,94.3,55.1,93.4,55,91.6z"/>
	<path class="st1" d="M24.7,106.2c2.6,0.3,3,2.2,2.4,4.2c-0.5,1.7-2,2.5-3.8,2.4c-1.8-0.2-3-1.1-3.3-3c-0.2-1.5,0-2.5,1.8-2.8
		c1.2-0.2,0.3,0.7,0.7,0.7c0,0,0,0,0,0c-1.3,1.1-1.3,2.2,0.2,3.1C28.1,111.2,24.5,107.9,24.7,106.2z"/>
	<path class="st1" d="M24.7,106.2c-0.2,1.7,3.4,5-1.9,4.5c-0.1-1-0.2-2-0.2-3.1c0,0,0,0,0,0C23.3,107.2,24,106.7,24.7,106.2z"/>
	<path class="st1" d="M55,91.6c0.1,1.8-0.7,2.6-2,2.7c-1.1,0-2.1-0.7-2.2-1.9c-0.1-1.4,0.8-2.2,2.1-2.3C54.2,90,54.8,90.9,55,91.6z"
		/>
	<path class="st1" d="M232,196.7c-1.8,2-3.5,1.1-4.9-0.4c-1.3-1.4-1.2-3.1,0-4.5c1.4-1.6,3.1-2.3,5-0.5c-0.3,0.8-1,0.9-1.7,0.8
		c-1.3-0.1-2.4,0.4-2.6,1.7c-0.2,1.3,0.8,2,2.1,2.2C230.7,196.1,231.3,196.4,232,196.7z"/>
	<path class="st1" d="M232,196.7c-0.7-0.2-1.3-0.5-2-0.6c-1.3-0.2-2.3-0.9-2.1-2.2c0.1-1.3,1.3-1.8,2.6-1.7c0.8,0.1,1.4,0,1.7-0.8
		C235.5,193.1,235.3,194.9,232,196.7z M232.5,193.8c-0.3-0.1-0.5-0.3-0.7-0.3c-0.2,0.1-0.2,0.4-0.3,0.7c0.3,0.1,0.5,0.3,0.7,0.3
		C232.3,194.4,232.4,194,232.5,193.8z"/>
	<path class="st1" d="M379.2,206.6c2.5,0.6,2.4,2.1,1.5,3.9c-1.2,2.5-2.4,1-3.6,0c-0.1-0.1-0.7,0.3-1,0.5c-0.3,0-0.6,0-1,0.1
		c0,0,0,0,0,0C374.2,207.5,376.5,206.8,379.2,206.6z"/>
	<path class="st1" d="M379.2,206.6c-2.7,0.3-5,0.9-4.1,4.5c-1.8-1.2-2.4-2.3-1.5-3.6C375.1,205.3,377,204.6,379.2,206.6z"/>
	<path class="st1" d="M375.1,211.1c0.3,0,0.6,0,1-0.1c-0.2,0.3-0.4,0.9-0.6,0.9C375,211.9,374.9,211.5,375.1,211.1z"/>
	<path class="st1" d="M318.5,347.8c-2.4-0.2-4-1.2-4-3.5c-0.1-2.5,1.5-4,3.8-3.9c2,0.1,3.6,1.3,3.6,3.7
		C321.8,346.4,320.5,347.6,318.5,347.8z M318.3,342c-1.2,0.1-1.8,0.8-2,1.9c-0.2,1.3,0.6,2.1,1.7,2.2c1.2,0.2,2-0.6,2-1.9
		C320,343.2,319.6,342.3,318.3,342z"/>
	<path class="st1" d="M318.3,342c1.3,0.3,1.7,1.2,1.7,2.3c0,1.2-0.9,2-2,1.9c-1.1-0.1-1.8-1-1.7-2.2
		C316.5,342.7,317.2,342.1,318.3,342z"/>
</g>
</svg>
