<?xml version="1.0" encoding="utf-8"?>
<!-- Generator: Adobe Illustrator 23.0.1, SVG Export Plug-In . SVG Version: 6.00 Build 0)  -->
<svg version="1.1" id="Layer_1" xmlns="http://www.w3.org/2000/svg" xmlns:xlink="http://www.w3.org/1999/xlink" x="0px" y="0px"
	 viewBox="0 0 100 100" style="enable-background:new 0 0 100 100;" xml:space="preserve">
<style type="text/css">
	.st0{fill:#FFFFFF;}
	.st1{fill:#FFF200;}
	.st2{fill:#51203D;}
</style>
<g>
	<g>
		<path class="st0" d="M27,75V54H2.3c0.1-0.8,0.2-1.7,0.3-2.5C2.2,54.4,2,57.2,2,60c0,6.8,0,12.7,0.8,17.6c-0.1-0.8-0.3-1.7-0.4-2.6
			H27z"/>
	</g>
	<g>
		<path class="st0" d="M73,54v21h24.5c-0.1,0.9-0.2,1.7-0.4,2.6C98,72.7,98,66.8,98,60c0-2.8-0.2-5.6-0.6-8.5
			c0.1,0.8,0.2,1.7,0.3,2.5H73z"/>
	</g>
	<g>
		<path class="st1" d="M3.3,80c-0.2-0.8-0.4-1.6-0.5-2.4C3,78.4,3.1,79.2,3.3,80z"/>
	</g>
	<g>
		<path class="st0" d="M27,9.1c0.8-0.5,1.6-1.1,2.4-1.5c-5.7,3.3-10.6,8-14.6,13.4H27V9.1z"/>
	</g>
	<g>
		<path class="st0" d="M73,49h24c-1.4-8-4.3-15.9-8.5-23H73V49z"/>
	</g>
	<g>
		<path class="st0" d="M73,21h12.2c-4-5.4-8.9-10.1-14.6-13.4c0.8,0.5,1.6,1,2.4,1.5V21z"/>
	</g>
	<g>
		<path class="st1" d="M67.9,21V6.1C62.5,3.5,56.5,2,50,2S37.5,3.5,32.1,6.1V21H67.9z"/>
	</g>
	<g>
		<rect x="32.1" y="26" class="st1" width="35.7" height="23"/>
	</g>
	<g>
		<path class="st0" d="M3.3,80c2.2,8.9,8.1,14.3,23.7,16.7V80H3.3z"/>
	</g>
	<g>
		<rect x="32.1" y="54" class="st1" width="35.7" height="21"/>
	</g>
	<g>
		<path class="st0" d="M73,96.7c15.6-2.3,21.5-7.7,23.7-16.7H73V96.7z"/>
	</g>
	<g>
		<path class="st1" d="M32.1,80v17.3c5.1,0.5,11,0.7,17.9,0.7s12.8-0.2,17.9-0.7V80H32.1z"/>
	</g>
	<g>
		<path class="st0" d="M27,26H11.5C7.3,33.1,4.4,41,3,49h24V26z"/>
	</g>
	<g>
		<path class="st1" d="M11.5,26c1-1.7,2.1-3.4,3.3-5C13.6,22.6,12.5,24.3,11.5,26z"/>
	</g>
	<g>
		<path class="st1" d="M67.9,6.1c0.9,0.4,1.7,0.9,2.6,1.4C69.6,7,68.8,6.6,67.9,6.1z"/>
	</g>
	<g>
		<path class="st1" d="M29.5,7.5c0.8-0.5,1.7-1,2.6-1.4C31.2,6.6,30.4,7,29.5,7.5z"/>
	</g>
	<g>
		<path class="st1" d="M97.2,77.6c-0.1,0.8-0.3,1.6-0.5,2.4C96.9,79.2,97,78.4,97.2,77.6z"/>
	</g>
	<g>
		<path class="st1" d="M73,96.7c-1.6,0.2-3.3,0.4-5.1,0.6C69.7,97.1,71.4,96.9,73,96.7z"/>
	</g>
	<g>
		<path class="st1" d="M32.1,97.3c-1.8-0.2-3.5-0.4-5.1-0.6C28.6,96.9,30.3,97.1,32.1,97.3z"/>
	</g>
	<g>
		<path class="st1" d="M2.6,51.5C2.7,50.7,2.8,49.8,3,49C2.8,49.8,2.7,50.7,2.6,51.5z"/>
	</g>
	<g>
		<path class="st1" d="M85.2,21c1.2,1.6,2.3,3.3,3.3,5C87.5,24.3,86.4,22.6,85.2,21z"/>
	</g>
	<g>
		<path class="st1" d="M97,49c0.1,0.8,0.3,1.7,0.4,2.5C97.3,50.7,97.2,49.8,97,49z"/>
	</g>
	<path class="st2" d="M96.7,80c0.2-0.8,0.4-1.6,0.5-2.4c0,0,0,0,0,0c0.1-0.8,0.3-1.7,0.4-2.6H73V54h24.7c-0.1-0.8-0.2-1.7-0.3-2.5
		c0,0,0,0,0,0c-0.1-0.8-0.2-1.7-0.4-2.5c0,0,0,0,0,0l0,0H73V26h15.5l0,0c0,0,0,0,0,0c-1-1.7-2.1-3.4-3.3-5c0,0,0,0,0,0l0,0H73V9.1
		c-0.8-0.5-1.6-1.1-2.4-1.5c0,0-0.1,0-0.1-0.1c-0.8-0.5-1.7-1-2.6-1.4c0,0,0,0,0,0l0,0V21H32.1V6.1l0,0c0,0,0,0,0,0
		c-0.9,0.4-1.7,0.9-2.6,1.4c0,0-0.1,0-0.1,0.1c-0.8,0.5-1.6,1-2.4,1.5V21H14.8l0,0c0,0,0,0,0,0c-1.2,1.6-2.3,3.3-3.3,5c0,0,0,0,0,0
		l0,0H27v23H3l0,0c0,0,0,0,0,0c-0.1,0.8-0.3,1.7-0.4,2.5c0,0,0,0,0,0c-0.1,0.8-0.2,1.7-0.3,2.5H27v21H2.5c0.1,0.9,0.2,1.7,0.4,2.6
		c0,0,0,0,0,0C3,78.4,3.1,79.2,3.3,80c0,0,0,0,0,0l0,0H27v16.7l0,0c0,0,0,0,0,0c1.6,0.2,3.3,0.4,5.1,0.6c0,0,0,0,0,0l0,0V80h35.7
		v17.3l0,0c0,0,0,0,0,0c1.8-0.2,3.5-0.4,5.1-0.6c0,0,0,0,0,0l0,0V80L96.7,80L96.7,80C96.7,80,96.7,80,96.7,80z M67.9,26v23H32.1V26
		H67.9z M32.1,75V54h35.7v21H32.1z"/>
</g>
</svg>
